<svg xmlns="http://www.w3.org/2000/svg" width="545.266" height="113.344" version="1.1"><defs><style type="text/css">svg{background-color:#fff}.root text,.root tspan{font:12px Arial}.root circle,.root path{stroke-width:2px;stroke:#000}.root path{fill-opacity:0}.root circle{fill:#6b6659}.charset-escape text,.escape text,.literal text{fill:#000}.charset-escape rect,.escape rect{fill:#bada55}.literal rect{fill:#dae9e5}.charset .charset-box{fill:#cbcbba}.charset .charset-label tspan,.subexp .subexp-label tspan{font-size:10px;dominant-baseline:text-after-edge}.subexp .subexp-box{stroke:#908c83;stroke-dasharray:6,2;stroke-width:2px;fill-opacity:0}.quote{fill:#908c83}</style></defs><metadata/><desc>Created with Snap</desc><g class="root" transform="matrix(1,0,0,1,15,10)"><g class="regexp match"><path d="M25,52.17183750000001H55M92.8125,52.1718375H127.8125M152.8125,52.17183750000001H177.8125M243.84375,52.1718864440918H268.8438M297.18755,52.17183750000001H307.1875M460.265625,52.17183750000001H470.2656" transform="matrix(1,0,0,1,10,0)"/><g class="match-fragment literal"><g class="label" transform="matrix(1,0,0,1,10,0) matrix(1,0,0,1,0,40.3359)"><rect width="25" height="23.672" rx="3" ry="3"/><text x="0" y="0" transform="matrix(1,0,0,1,5,16.8359)"><tspan class="quote">“</tspan><tspan>&lt;</tspan><tspan class="quote">”</tspan></text></g></g><g class="match-fragment subexp" transform="matrix(1,0,0,1,10,0) matrix(1,0,0,1,35,3.2265)"><rect width="82.813" height="74.672" class="subexp-box" rx="3" ry="3" transform="matrix(1,0,0,1,0,11.1094)"/><text x="0" y="0" class="subexp-label" transform="matrix(1,0,0,1,0,11.1094)"><tspan>group #1</tspan></text><g class="regexp match match-fragment"><path d="M10,27.8359375q-10,0 -10,10v6.8359375q0,10 10,10h37.8125q10,0 10,-10v-6.8359375q0,-10 -10,-10M57.8125,42.8359375l5,-5m-5,5l-5,-5" transform="matrix(1,0,0,1,10,21.1094)"/><g class="charset" transform="matrix(1,0,0,1,10,21.1094) matrix(1,0,0,1,10,0)"><rect width="37.813" height="33.672" class="charset-box" rx="3" ry="3" transform="matrix(1,0,0,1,0,11)"/><text x="0" y="0" class="charset-label" transform="matrix(1,0,0,1,0,11)"><tspan>None of:</tspan></text><g><g class="literal"><g class="label" transform="matrix(1,0,0,1,6.4063,16) matrix(1,0,0,1,0,0)"><rect width="25" height="23.672" rx="3" ry="3"/><text x="0" y="0" transform="matrix(1,0,0,1,5,16.8359)"><tspan class="quote">“</tspan><tspan>&gt;</tspan><tspan class="quote">”</tspan></text></g></g></g></g></g></g><g class="match-fragment literal"><g class="label" transform="matrix(1,0,0,1,10,0) matrix(1,0,0,1,127.8125,40.3359)"><rect width="25" height="23.672" rx="3" ry="3"/><text x="0" y="0" transform="matrix(1,0,0,1,5,16.8359)"><tspan class="quote">“</tspan><tspan>&gt;</tspan><tspan class="quote">”</tspan></text></g></g><g class="match-fragment"><path d="M0,52.1718864440918q10,0 10,-10v-32.1718864440918q0,-10 10,-10h56.03125q10,0 10,10v32.1718864440918q0,10 10,10M15,52.1718864440918q-10,0 -10,10v21.171886444091797q0,10 10,10h66.03125q10,0 10,-10v-21.171886444091797q0,-10 -10,-10M91.03125,67.1718864440918l5,-5m-5,5l-5,-5" transform="matrix(1,0,0,1,10,0) matrix(1,0,0,1,162.8125,0)"/><g class="charset" transform="matrix(1,0,0,1,10,0) matrix(1,0,0,1,162.8125,0) matrix(1,0,0,1,15,10)"><rect width="66.031" height="62.344" class="charset-box" rx="3" ry="3" transform="matrix(1,0,0,1,0,11)"/><text x="0" y="0" class="charset-label" transform="matrix(1,0,0,1,0,11)"><tspan>One of:</tspan></text><g><g class="charset-escape"><g class="label" transform="matrix(1,0,0,1,5,16) matrix(1,0,0,1,12.0078,0)"><rect width="32.016" height="23.672" rx="3" ry="3"/><text x="0" y="0" transform="matrix(1,0,0,1,5,16.8359)"><tspan>digit</tspan></text></g></g><g class="charset-escape"><g class="label" transform="matrix(1,0,0,1,5,16) matrix(1,0,0,1,0,28.6719)"><rect width="56.031" height="23.672" rx="3" ry="3"/><text x="0" y="0" transform="matrix(1,0,0,1,5,16.8359)"><tspan>non-digit</tspan></text></g></g></g></g></g><g class="match-fragment literal"><g class="label" transform="matrix(1,0,0,1,10,0) matrix(1,0,0,1,268.8438,40.3359)"><rect width="28.344" height="23.672" rx="3" ry="3"/><text x="0" y="0" transform="matrix(1,0,0,1,5,16.8359)"><tspan class="quote">“</tspan><tspan>&lt;/</tspan><tspan class="quote">”</tspan></text></g></g><g class="match-fragment escape"><g class="label" transform="matrix(1,0,0,1,10,0) matrix(1,0,0,1,307.1875,40.3359)"><rect width="153.078" height="23.672" rx="3" ry="3"/><text x="0" y="0" transform="matrix(1,0,0,1,5,16.8359)"><tspan>Back reference (group = 1)</tspan></text></g></g><g class="match-fragment literal"><g class="label" transform="matrix(1,0,0,1,10,0) matrix(1,0,0,1,470.2656,40.3359)"><rect width="25" height="23.672" rx="3" ry="3"/><text x="0" y="0" transform="matrix(1,0,0,1,5,16.8359)"><tspan class="quote">“</tspan><tspan>&gt;</tspan><tspan class="quote">”</tspan></text></g></g></g><path d="M10,52.17183750000001H0M505.2656,52.17183750000001H515.2655944824219"/><circle cx="0" cy="52.172" r="5"/><circle cx="515.266" cy="52.172" r="5"/></g></svg>