<svg xmlns="http://www.w3.org/2000/svg" width="735.797" height="251.5" version="1.1"><defs><style type="text/css">svg{background-color:#fff}.root text,.root tspan{font:12px Arial}.root circle,.root path{stroke-width:2px;stroke:#000}.root path{fill-opacity:0}.anchor rect,.root circle{fill:#6b6659}.anchor text{fill:#fff}.literal text{fill:#000}.literal rect{fill:#dae9e5}.charset .charset-box{fill:#cbcbba}.charset .charset-label tspan,.match-fragment .repeat-label tspan,.subexp .subexp-label tspan{font-size:10px}.repeat-label{cursor:help}.charset .charset-label tspan,.subexp .subexp-label tspan{dominant-baseline:text-after-edge}.subexp .subexp-box{stroke:#908c83;stroke-dasharray:6,2;stroke-width:2px;fill-opacity:0}.quote{fill:#908c83}</style></defs><metadata/><desc>Created with Snap</desc><g class="root" transform="matrix(1,0,0,1,15,9.8906)"><g class="regexp match"><path d="M70.703125,121.3594H90.7031M164.04688051757813,121.3594H189.0469M211.0469,121.3594H231.0469M379.06258603515624,121.3594H399.0626M421.0626,121.3594H441.0626M599.0782860351562,121.3594H619.0783" transform="matrix(1,0,0,1,10,0)"/><g class="match-fragment"><g class="label anchor" transform="matrix(1,0,0,1,10,0) matrix(1,0,0,1,0,109.6094)"><rect width="70.703" height="23.5"/><text x="0" y="0" transform="matrix(1,0,0,1,5,16.75)"><tspan>Start of line</tspan></text></g></g><g class="match-fragment"><path d="M10,27.75q-10,0 -10,10v6.75q0,10 10,10h73.34378051757812q10,0 10,-10v-6.75q0,-10 -10,-10M93.34378051757812,42.75l5,-5m-5,5l-5,-5" transform="matrix(1,0,0,1,10,0) matrix(1,0,0,1,80.7031,93.6094)"/><g class="charset" transform="matrix(1,0,0,1,10,0) matrix(1,0,0,1,80.7031,93.6094) matrix(1,0,0,1,10,0)"><rect width="73.344" height="33.5" class="charset-box" rx="3" ry="3" transform="matrix(1,0,0,1,0,11)"/><text x="0" y="0" class="charset-label" transform="matrix(1,0,0,1,0,11)"><tspan>One of:</tspan></text><g><g class="charset-range"><text x="0" y="0" transform="matrix(1,0,0,1,5,16) matrix(1,0,0,1,0,0) matrix(1,0,0,1,29.6719,16)">-</text><g class="literal"><g class="label" transform="matrix(1,0,0,1,5,16) matrix(1,0,0,1,0,0) matrix(1,0,0,1,0,0)"><rect width="24.672" height="23.5" rx="3" ry="3"/><text x="0" y="0" transform="matrix(1,0,0,1,5,16.75)"><tspan class="quote">“</tspan><tspan>0</tspan><tspan class="quote">”</tspan></text></g></g><g class="literal"><g class="label" transform="matrix(1,0,0,1,5,16) matrix(1,0,0,1,0,0) matrix(1,0,0,1,38.6719,0)"><rect width="24.672" height="23.5" rx="3" ry="3"/><text x="0" y="0" transform="matrix(1,0,0,1,5,16.75)"><tspan class="quote">“</tspan><tspan>9</tspan><tspan class="quote">”</tspan></text></g></g></g></g></g><text x="0" y="0" class="repeat-label" transform="matrix(1,0,0,1,10,0) matrix(1,0,0,1,80.7031,93.6094) matrix(1,0,0,1,66.1094,65.5)"><tspan>3 times</tspan><title><text x="0" y="0">repeats 4 times in total</text></title></text></g><g class="match-fragment literal"><g class="label" transform="matrix(1,0,0,1,10,0) matrix(1,0,0,1,189.0469,109.6094)"><rect width="22" height="23.5" rx="3" ry="3"/><text x="0" y="0" transform="matrix(1,0,0,1,5,16.75)"><tspan class="quote">“</tspan><tspan>-</tspan><tspan class="quote">”</tspan></text></g></g><g class="match-fragment subexp" transform="matrix(1,0,0,1,10,0) matrix(1,0,0,1,221.0469,53.25)"><rect width="168.016" height="114" class="subexp-box" rx="3" ry="3" transform="matrix(1,0,0,1,0,11.1094)"/><text x="0" y="0" class="subexp-label" transform="matrix(1,0,0,1,0,11.1094)"><tspan>group #1</tspan></text><g class="regexp"><path d="M10,37.75q0,-10 10,-10M138.01568603515625,37.75q0,-10 -10,-10M10,67.25q0,10 10,10M138.01568603515625,67.25q0,10 -10,10M0,47q10,0 10,-10V37.75M148.01568603515625,47q-10,0 -10,-10V37.75M0,47q10,0 10,10V67.25M148.01568603515625,47q-10,0 -10,10V67.25" transform="matrix(1,0,0,1,10,21.1094)"/><g class="regexp-matches"><path d="M0,27.75h0M108.01568051757812,27.75H108.01568603515625M0,77.25h0M108.01568051757812,77.25H108.01568603515625" transform="matrix(1,0,0,1,10,21.1094) matrix(1,0,0,1,20,0)"/><g class="match"><path d="M24.671875,27.75H34.6719" transform="matrix(1,0,0,1,10,21.1094) matrix(1,0,0,1,20,0) matrix(1,0,0,1,0,0)"/><g class="match-fragment literal"><g class="label" transform="matrix(1,0,0,1,10,21.1094) matrix(1,0,0,1,20,0) matrix(1,0,0,1,0,0) matrix(1,0,0,1,0,16)"><rect width="24.672" height="23.5" rx="3" ry="3"/><text x="0" y="0" transform="matrix(1,0,0,1,5,16.75)"><tspan class="quote">“</tspan><tspan>0</tspan><tspan class="quote">”</tspan></text></g></g><g class="match-fragment charset" transform="matrix(1,0,0,1,10,21.1094) matrix(1,0,0,1,20,0) matrix(1,0,0,1,0,0) matrix(1,0,0,1,34.6719,0)"><rect width="73.344" height="33.5" class="charset-box" rx="3" ry="3" transform="matrix(1,0,0,1,0,11)"/><text x="0" y="0" class="charset-label" transform="matrix(1,0,0,1,0,11)"><tspan>One of:</tspan></text><g><g class="charset-range"><text x="0" y="0" transform="matrix(1,0,0,1,5,16) matrix(1,0,0,1,0,0) matrix(1,0,0,1,29.6719,16)">-</text><g class="literal"><g class="label" transform="matrix(1,0,0,1,5,16) matrix(1,0,0,1,0,0) matrix(1,0,0,1,0,0)"><rect width="24.672" height="23.5" rx="3" ry="3"/><text x="0" y="0" transform="matrix(1,0,0,1,5,16.75)"><tspan class="quote">“</tspan><tspan>1</tspan><tspan class="quote">”</tspan></text></g></g><g class="literal"><g class="label" transform="matrix(1,0,0,1,5,16) matrix(1,0,0,1,0,0) matrix(1,0,0,1,38.6719,0)"><rect width="24.672" height="23.5" rx="3" ry="3"/><text x="0" y="0" transform="matrix(1,0,0,1,5,16.75)"><tspan class="quote">“</tspan><tspan>9</tspan><tspan class="quote">”</tspan></text></g></g></g></g></g></g><g class="match"><path d="M24.671875,27.75H34.6719" transform="matrix(1,0,0,1,10,21.1094) matrix(1,0,0,1,20,0) matrix(1,0,0,1,0,49.5)"/><g class="match-fragment literal"><g class="label" transform="matrix(1,0,0,1,10,21.1094) matrix(1,0,0,1,20,0) matrix(1,0,0,1,0,49.5) matrix(1,0,0,1,0,16)"><rect width="24.672" height="23.5" rx="3" ry="3"/><text x="0" y="0" transform="matrix(1,0,0,1,5,16.75)"><tspan class="quote">“</tspan><tspan>1</tspan><tspan class="quote">”</tspan></text></g></g><g class="match-fragment charset" transform="matrix(1,0,0,1,10,21.1094) matrix(1,0,0,1,20,0) matrix(1,0,0,1,0,49.5) matrix(1,0,0,1,34.6719,0)"><rect width="73.344" height="33.5" class="charset-box" rx="3" ry="3" transform="matrix(1,0,0,1,0,11)"/><text x="0" y="0" class="charset-label" transform="matrix(1,0,0,1,0,11)"><tspan>One of:</tspan></text><g><g class="charset-range"><text x="0" y="0" transform="matrix(1,0,0,1,5,16) matrix(1,0,0,1,0,0) matrix(1,0,0,1,29.6719,16)">-</text><g class="literal"><g class="label" transform="matrix(1,0,0,1,5,16) matrix(1,0,0,1,0,0) matrix(1,0,0,1,0,0)"><rect width="24.672" height="23.5" rx="3" ry="3"/><text x="0" y="0" transform="matrix(1,0,0,1,5,16.75)"><tspan class="quote">“</tspan><tspan>0</tspan><tspan class="quote">”</tspan></text></g></g><g class="literal"><g class="label" transform="matrix(1,0,0,1,5,16) matrix(1,0,0,1,0,0) matrix(1,0,0,1,38.6719,0)"><rect width="24.672" height="23.5" rx="3" ry="3"/><text x="0" y="0" transform="matrix(1,0,0,1,5,16.75)"><tspan class="quote">“</tspan><tspan>2</tspan><tspan class="quote">”</tspan></text></g></g></g></g></g></g></g></g></g><g class="match-fragment literal"><g class="label" transform="matrix(1,0,0,1,10,0) matrix(1,0,0,1,399.0626,109.6094)"><rect width="22" height="23.5" rx="3" ry="3"/><text x="0" y="0" transform="matrix(1,0,0,1,5,16.75)"><tspan class="quote">“</tspan><tspan>-</tspan><tspan class="quote">”</tspan></text></g></g><g class="match-fragment subexp" transform="matrix(1,0,0,1,10,0) matrix(1,0,0,1,431.0626,0)"><rect width="178.016" height="220.5" class="subexp-box" rx="3" ry="3" transform="matrix(1,0,0,1,0,11.1094)"/><text x="0" y="0" class="subexp-label" transform="matrix(1,0,0,1,0,11.1094)"><tspan>group #2</tspan></text><g class="regexp"><path d="M10,37.75q0,-10 10,-10M148.01568603515625,37.75q0,-10 -10,-10M0,100.25c10,0 10,-8.75 20,-8.75M158.01568603515625,100.25c-10,0 -10,-8.75 -20,-8.75M10,159.5q0,10 10,10M148.01568603515625,159.5q0,10 -10,10M0,100.25q10,0 10,-10V37.75M158.01568603515625,100.25q-10,0 -10,-10V37.75M0,100.25q10,0 10,10V159.5M158.01568603515625,100.25q-10,0 -10,10V159.5" transform="matrix(1,0,0,1,10,21.1094)"/><g class="regexp-matches"><path d="M0,27.75h5M113.01568051757812,27.75H118.01568603515625M0,91.5h0M118.01568051757812,91.5H118.01568603515625M0,169.5h24.336M93.67977499999999,169.5H118.01568603515625" transform="matrix(1,0,0,1,10,21.1094) matrix(1,0,0,1,20,0)"/><g class="match"><path d="M24.671875,27.75H34.6719" transform="matrix(1,0,0,1,10,21.1094) matrix(1,0,0,1,20,0) matrix(1,0,0,1,5,0)"/><g class="match-fragment literal"><g class="label" transform="matrix(1,0,0,1,10,21.1094) matrix(1,0,0,1,20,0) matrix(1,0,0,1,5,0) matrix(1,0,0,1,0,16)"><rect width="24.672" height="23.5" rx="3" ry="3"/><text x="0" y="0" transform="matrix(1,0,0,1,5,16.75)"><tspan class="quote">“</tspan><tspan>0</tspan><tspan class="quote">”</tspan></text></g></g><g class="match-fragment charset" transform="matrix(1,0,0,1,10,21.1094) matrix(1,0,0,1,20,0) matrix(1,0,0,1,5,0) matrix(1,0,0,1,34.6719,0)"><rect width="73.344" height="33.5" class="charset-box" rx="3" ry="3" transform="matrix(1,0,0,1,0,11)"/><text x="0" y="0" class="charset-label" transform="matrix(1,0,0,1,0,11)"><tspan>One of:</tspan></text><g><g class="charset-range"><text x="0" y="0" transform="matrix(1,0,0,1,5,16) matrix(1,0,0,1,0,0) matrix(1,0,0,1,29.6719,16)">-</text><g class="literal"><g class="label" transform="matrix(1,0,0,1,5,16) matrix(1,0,0,1,0,0) matrix(1,0,0,1,0,0)"><rect width="24.672" height="23.5" rx="3" ry="3"/><text x="0" y="0" transform="matrix(1,0,0,1,5,16.75)"><tspan class="quote">“</tspan><tspan>1</tspan><tspan class="quote">”</tspan></text></g></g><g class="literal"><g class="label" transform="matrix(1,0,0,1,5,16) matrix(1,0,0,1,0,0) matrix(1,0,0,1,38.6719,0)"><rect width="24.672" height="23.5" rx="3" ry="3"/><text x="0" y="0" transform="matrix(1,0,0,1,5,16.75)"><tspan class="quote">“</tspan><tspan>9</tspan><tspan class="quote">”</tspan></text></g></g></g></g></g></g><g class="match"><path d="M34.671875,42H44.6719" transform="matrix(1,0,0,1,10,21.1094) matrix(1,0,0,1,20,0) matrix(1,0,0,1,0,49.5)"/><g class="match-fragment charset" transform="matrix(1,0,0,1,10,21.1094) matrix(1,0,0,1,20,0) matrix(1,0,0,1,0,49.5) matrix(1,0,0,1,0,0)"><rect width="34.672" height="62" class="charset-box" rx="3" ry="3" transform="matrix(1,0,0,1,0,11)"/><text x="0" y="0" class="charset-label" transform="matrix(1,0,0,1,0,11)"><tspan>One of:</tspan></text><g><g class="literal"><g class="label" transform="matrix(1,0,0,1,5,16) matrix(1,0,0,1,0,0)"><rect width="24.672" height="23.5" rx="3" ry="3"/><text x="0" y="0" transform="matrix(1,0,0,1,5,16.75)"><tspan class="quote">“</tspan><tspan>1</tspan><tspan class="quote">”</tspan></text></g></g><g class="literal"><g class="label" transform="matrix(1,0,0,1,5,16) matrix(1,0,0,1,0,28.5)"><rect width="24.672" height="23.5" rx="3" ry="3"/><text x="0" y="0" transform="matrix(1,0,0,1,5,16.75)"><tspan class="quote">“</tspan><tspan>2</tspan><tspan class="quote">”</tspan></text></g></g></g></g><g class="match-fragment charset" transform="matrix(1,0,0,1,10,21.1094) matrix(1,0,0,1,20,0) matrix(1,0,0,1,0,49.5) matrix(1,0,0,1,44.6719,14.25)"><rect width="73.344" height="33.5" class="charset-box" rx="3" ry="3" transform="matrix(1,0,0,1,0,11)"/><text x="0" y="0" class="charset-label" transform="matrix(1,0,0,1,0,11)"><tspan>One of:</tspan></text><g><g class="charset-range"><text x="0" y="0" transform="matrix(1,0,0,1,5,16) matrix(1,0,0,1,0,0) matrix(1,0,0,1,29.6719,16)">-</text><g class="literal"><g class="label" transform="matrix(1,0,0,1,5,16) matrix(1,0,0,1,0,0) matrix(1,0,0,1,0,0)"><rect width="24.672" height="23.5" rx="3" ry="3"/><text x="0" y="0" transform="matrix(1,0,0,1,5,16.75)"><tspan class="quote">“</tspan><tspan>0</tspan><tspan class="quote">”</tspan></text></g></g><g class="literal"><g class="label" transform="matrix(1,0,0,1,5,16) matrix(1,0,0,1,0,0) matrix(1,0,0,1,38.6719,0)"><rect width="24.672" height="23.5" rx="3" ry="3"/><text x="0" y="0" transform="matrix(1,0,0,1,5,16.75)"><tspan class="quote">“</tspan><tspan>9</tspan><tspan class="quote">”</tspan></text></g></g></g></g></g></g><g class="match"><path d="M24.671875,42H34.6719" transform="matrix(1,0,0,1,10,21.1094) matrix(1,0,0,1,20,0) matrix(1,0,0,1,24.336,127.5)"/><g class="match-fragment literal"><g class="label" transform="matrix(1,0,0,1,10,21.1094) matrix(1,0,0,1,20,0) matrix(1,0,0,1,24.336,127.5) matrix(1,0,0,1,0,30.25)"><rect width="24.672" height="23.5" rx="3" ry="3"/><text x="0" y="0" transform="matrix(1,0,0,1,5,16.75)"><tspan class="quote">“</tspan><tspan>3</tspan><tspan class="quote">”</tspan></text></g></g><g class="match-fragment charset" transform="matrix(1,0,0,1,10,21.1094) matrix(1,0,0,1,20,0) matrix(1,0,0,1,24.336,127.5) matrix(1,0,0,1,34.6719,0)"><rect width="34.672" height="62" class="charset-box" rx="3" ry="3" transform="matrix(1,0,0,1,0,11)"/><text x="0" y="0" class="charset-label" transform="matrix(1,0,0,1,0,11)"><tspan>One of:</tspan></text><g><g class="literal"><g class="label" transform="matrix(1,0,0,1,5,16) matrix(1,0,0,1,0,0)"><rect width="24.672" height="23.5" rx="3" ry="3"/><text x="0" y="0" transform="matrix(1,0,0,1,5,16.75)"><tspan class="quote">“</tspan><tspan>0</tspan><tspan class="quote">”</tspan></text></g></g><g class="literal"><g class="label" transform="matrix(1,0,0,1,5,16) matrix(1,0,0,1,0,28.5)"><rect width="24.672" height="23.5" rx="3" ry="3"/><text x="0" y="0" transform="matrix(1,0,0,1,5,16.75)"><tspan class="quote">“</tspan><tspan>1</tspan><tspan class="quote">”</tspan></text></g></g></g></g></g></g></g></g><g class="match-fragment"><g class="label anchor" transform="matrix(1,0,0,1,10,0) matrix(1,0,0,1,619.0783,109.6094)"><rect width="66.719" height="23.5"/><text x="0" y="0" transform="matrix(1,0,0,1,5,16.75)"><tspan>End of line</tspan></text></g></g></g><path d="M10,121.3594H0M695.79705,121.3594H705.7970581054688"/><circle cx="0" cy="121.359" r="5"/><circle cx="705.797" cy="121.359" r="5"/></g></svg>