<svg xmlns="http://www.w3.org/2000/svg" width="404.016" height="76.5" version="1.1"><defs><style type="text/css">svg{background-color:#fff}.root text,.root tspan{font:12px Arial}.root circle,.root path{stroke-width:2px;stroke:#000}.root path{fill-opacity:0}.root circle{fill:#6b6659}.literal text{fill:#000}.literal rect{fill:#dae9e5}.match-fragment .repeat-label tspan{font-size:10px}.repeat-label{cursor:help}.quote{fill:#908c83}</style></defs><metadata/><desc>Created with Snap</desc><g class="root" transform="matrix(1,0,0,1,15,10)"><g class="regexp match"><path d="M34.671875,21.75H69.6719M94.343775,21.75H129.3438M153.3438,21.75H193.3438M218.015675,21.75H253.0156M277.687475,21.75H317.6875" transform="matrix(1,0,0,1,10,0)"/><g class="match-fragment"><path d="M10,11.75q-10,0 -10,10v1.75q0,10 10,10h24.671875q10,0 10,-10v-1.75q0,-10 -10,-10M44.671875,26.75l5,-5m-5,5l-5,-5" transform="matrix(1,0,0,1,10,0) matrix(1,0,0,1,0,10)"/><g class="literal"><g class="label" transform="matrix(1,0,0,1,10,0) matrix(1,0,0,1,0,10) matrix(1,0,0,1,10,0)"><rect width="24.672" height="23.5" rx="3" ry="3"/><text x="0" y="0" transform="matrix(1,0,0,1,5,16.75)"><tspan class="quote">“</tspan><tspan>a</tspan><tspan class="quote">”</tspan></text></g></g></g><g class="match-fragment"><path d="M10,11.75q-10,0 -10,10v1.75q0,10 10,10h24.671875q10,0 10,-10v-1.75q0,-10 -10,-10M44.671875,26.75l5,-5m-5,5l-5,-5" transform="matrix(1,0,0,1,10,0) matrix(1,0,0,1,59.6719,10)"/><g class="literal"><g class="label" transform="matrix(1,0,0,1,10,0) matrix(1,0,0,1,59.6719,10) matrix(1,0,0,1,10,0)"><rect width="24.672" height="23.5" rx="3" ry="3"/><text x="0" y="0" transform="matrix(1,0,0,1,5,16.75)"><tspan class="quote">“</tspan><tspan>b</tspan><tspan class="quote">”</tspan></text></g></g><text x="0" y="0" class="repeat-label" transform="matrix(1,0,0,1,10,0) matrix(1,0,0,1,59.6719,10) matrix(1,0,0,1,1.875,44.5)"><tspan>1…3 times</tspan><title><text x="0" y="0">repeats 2…4 times in total</text></title></text></g><g class="match-fragment"><path d="M10,11.75q-10,0 -10,10v1.75q0,10 10,10h24q10,0 10,-10v-1.75q0,-10 -10,-10M44,26.75l5,-5m-5,5l-5,-5" transform="matrix(1,0,0,1,10,0) matrix(1,0,0,1,119.3438,10)"/><g class="literal"><g class="label" transform="matrix(1,0,0,1,10,0) matrix(1,0,0,1,119.3438,10) matrix(1,0,0,1,10,0)"><rect width="24" height="23.5" rx="3" ry="3"/><text x="0" y="0" transform="matrix(1,0,0,1,5,16.75)"><tspan class="quote">“</tspan><tspan>c</tspan><tspan class="quote">”</tspan></text></g></g><text x="0" y="0" class="repeat-label" transform="matrix(1,0,0,1,10,0) matrix(1,0,0,1,119.3438,10) matrix(1,0,0,1,27.3125,44.5)"><tspan>once</tspan><title><text x="0" y="0">repeats 2 times in total</text></title></text></g><g class="match-fragment"><path d="M0,21.75q10,0 10,-10v-1.75q0,-10 10,-10h14.671875q10,0 10,10v1.75q0,10 10,10" transform="matrix(1,0,0,1,10,0) matrix(1,0,0,1,178.3438,0)"/><g class="literal"><g class="label" transform="matrix(1,0,0,1,10,0) matrix(1,0,0,1,178.3438,0) matrix(1,0,0,1,15,10)"><rect width="24.672" height="23.5" rx="3" ry="3"/><text x="0" y="0" transform="matrix(1,0,0,1,5,16.75)"><tspan class="quote">“</tspan><tspan>d</tspan><tspan class="quote">”</tspan></text></g></g></g><g class="match-fragment"><path d="M10,11.75q-10,0 -10,10v1.75q0,10 10,10h24.671875q10,0 10,-10v-1.75q0,-10 -10,-10M44.671875,26.75l5,-5m-5,5l-5,-5" transform="matrix(1,0,0,1,10,0) matrix(1,0,0,1,243.0156,10)"/><g class="literal"><g class="label" transform="matrix(1,0,0,1,10,0) matrix(1,0,0,1,243.0156,10) matrix(1,0,0,1,10,0)"><rect width="24.672" height="23.5" rx="3" ry="3"/><text x="0" y="0" transform="matrix(1,0,0,1,5,16.75)"><tspan class="quote">“</tspan><tspan>e</tspan><tspan class="quote">”</tspan></text></g></g></g><g class="match-fragment"><path d="M0,21.75q10,0 10,-10v-1.75q0,-10 10,-10h11.328125q10,0 10,10v1.75q0,10 10,10M15,21.75q-10,0 -10,10v1.75q0,10 10,10h21.328125q10,0 10,-10v-1.75q0,-10 -10,-10M46.328125,36.75l5,-5m-5,5l-5,-5" transform="matrix(1,0,0,1,10,0) matrix(1,0,0,1,302.6875,0)"/><g class="literal"><g class="label" transform="matrix(1,0,0,1,10,0) matrix(1,0,0,1,302.6875,0) matrix(1,0,0,1,15,10)"><rect width="21.328" height="23.5" rx="3" ry="3"/><text x="0" y="0" transform="matrix(1,0,0,1,5,16.75)"><tspan class="quote">“</tspan><tspan>f</tspan><tspan class="quote">”</tspan></text></g></g></g></g><path d="M20,21.75H0M349.015625,21.75H374.015625"/><circle cx="0" cy="21.75" r="5"/><circle cx="374.016" cy="21.75" r="5"/></g></svg>