<svg xmlns="http://www.w3.org/2000/svg" width="198.688" height="84.5" version="1.1"><defs><style type="text/css">svg{background-color:#fff}.root text,.root tspan{font:12px Arial}.root circle,.root path{stroke-width:2px;stroke:#000}.root path{fill-opacity:0}.root circle{fill:#6b6659}.literal text{fill:#000}.literal rect{fill:#dae9e5}.charset .charset-box{fill:#cbcbba}.charset .charset-label tspan{font-size:10px;dominant-baseline:text-after-edge}.quote{fill:#908c83}</style></defs><metadata/><desc>Created with Snap</desc><g class="root" transform="matrix(1,0,0,1,15,10)"><g class="regexp match"><path d="M38.609375,37.75H63.6094M101.4219,37.75H126.4219" transform="matrix(1,0,0,1,10,0)"/><g class="match-fragment literal"><g class="label" transform="matrix(1,0,0,1,10,0) matrix(1,0,0,1,0,26)"><rect width="38.609" height="23.5" rx="3" ry="3"/><text x="0" y="0" transform="matrix(1,0,0,1,5,16.75)"><tspan class="quote">“</tspan><tspan>id=&quot;</tspan><tspan class="quote">”</tspan></text></g></g><g class="match-fragment"><path d="M0,37.75q10,0 10,-10v-17.75q0,-10 10,-10h27.8125q10,0 10,10v17.75q0,10 10,10M15,37.75q-10,0 -10,10v6.75q0,10 10,10h37.8125q10,0 10,-10v-6.75q0,-10 -10,-10M62.8125,52.75l5,-5m-5,5l-5,-5" transform="matrix(1,0,0,1,10,0) matrix(1,0,0,1,48.6094,0)"/><g class="charset" transform="matrix(1,0,0,1,10,0) matrix(1,0,0,1,48.6094,0) matrix(1,0,0,1,15,10)"><rect width="37.813" height="33.5" class="charset-box" rx="3" ry="3" transform="matrix(1,0,0,1,0,11)"/><text x="0" y="0" class="charset-label" transform="matrix(1,0,0,1,0,11)"><tspan>None of:</tspan></text><g><g class="literal"><g class="label" transform="matrix(1,0,0,1,7.7734,16) matrix(1,0,0,1,0,0)"><rect width="22.266" height="23.5" rx="3" ry="3"/><text x="0" y="0" transform="matrix(1,0,0,1,5,16.75)"><tspan class="quote">“</tspan><tspan>&quot;</tspan><tspan class="quote">”</tspan></text></g></g></g></g></g><g class="match-fragment literal"><g class="label" transform="matrix(1,0,0,1,10,0) matrix(1,0,0,1,126.4219,26)"><rect width="22.266" height="23.5" rx="3" ry="3"/><text x="0" y="0" transform="matrix(1,0,0,1,5,16.75)"><tspan class="quote">“</tspan><tspan>&quot;</tspan><tspan class="quote">”</tspan></text></g></g></g><path d="M10,37.75H0M158.687525,37.75H168.68753051757812"/><circle cx="0" cy="37.75" r="5"/><circle cx="168.688" cy="37.75" r="5"/></g></svg>