<svg xmlns="http://www.w3.org/2000/svg" width="822.172" height="302.547" version="1.1"><defs><style type="text/css">svg{background-color:#fff}.root text,.root tspan{font:12px Arial}.root circle,.root path{stroke-width:2px;stroke:#000}.root path{fill-opacity:0}.anchor rect,.any-character rect,.root circle{fill:#6b6659}.anchor text,.any-character text{fill:#fff}.literal text{fill:#000}.literal rect{fill:#dae9e5}.charset .charset-box{fill:#cbcbba}.charset .charset-label tspan,.match-fragment .repeat-label tspan,.subexp .subexp-label tspan{font-size:10px}.repeat-label{cursor:help}.charset .charset-label tspan,.subexp .subexp-label tspan{dominant-baseline:text-after-edge}.subexp .subexp-box{stroke:#908c83;stroke-dasharray:6,2;stroke-width:2px;fill-opacity:0}.quote{fill:#908c83}</style></defs><metadata/><desc>Created with Snap</desc><g class="root" transform="matrix(1,0,0,1,15,9.8906)"><g class="regexp match"><path d="M494.42193603515625,146.88286801757812H514.4219M585.125025,146.8829H605.1251M680.453225,146.8829H705.4532" transform="matrix(1,0,0,1,10,0)"/><g class="match-fragment subexp" transform="matrix(1,0,0,1,10,0) matrix(1,0,0,1,0,0)"><rect width="504.422" height="271.547" class="subexp-box" rx="3" ry="3" transform="matrix(1,0,0,1,0,11.1094)"/><text x="0" y="0" class="subexp-label" transform="matrix(1,0,0,1,0,11.1094)"><tspan>group #1</tspan></text><g class="regexp"><path d="M10,58.750025q0,-10 10,-10M474.42193603515625,58.750025q0,-10 -10,-10M0,125.77346801757812c10,0 10,8.492156982421875 20,8.492156982421875M484.42193603515625,125.77346801757812c-10,0 -10,8.492156982421875 -20,8.492156982421875M10,209.78132499999998q0,10 10,10M474.42193603515625,209.78132499999998q0,10 -10,10M0,125.77346801757812q10,0 10,-10V58.750025M484.42193603515625,125.77346801757812q-10,0 -10,-10V58.750025M0,125.77346801757812q10,0 10,10V209.78132499999998M484.42193603515625,125.77346801757812q-10,0 -10,10V209.78132499999998" transform="matrix(1,0,0,1,10,21.1094)"/><g class="regexp-matches"><path d="M0,48.750025h26.3281M433.0938055175781,48.750025H444.42193603515625M0,134.265625h25M434.421925,134.265625H444.42193603515625M0,219.78132499999998h25.336M434.08600551757814,219.78132499999998H444.42193603515625" transform="matrix(1,0,0,1,10,21.1094) matrix(1,0,0,1,20,0)"/><g class="match"><path d="M206.21878051757812,48.750025H251.2188" transform="matrix(1,0,0,1,10,21.1094) matrix(1,0,0,1,20,0) matrix(1,0,0,1,1.3281,0)"/><g class="match-fragment subexp" transform="matrix(1,0,0,1,10,21.1094) matrix(1,0,0,1,20,0) matrix(1,0,0,1,1.3281,0) matrix(1,0,0,1,0,0)"><rect width="216.219" height="69.516" class="subexp-box" rx="3" ry="3" transform="matrix(1,0,0,1,0,11)"/><text x="0" y="0" class="subexp-label" transform="matrix(1,0,0,1,0,11)"><tspan>positive lookahead</tspan></text><g class="regexp match"><path d="M97.875,27.750025H122.875" transform="matrix(1,0,0,1,10,21)"/><g class="match-fragment"><path d="M0,21.765625q10,0 10,-10v-1.765625q0,-10 10,-10h72.875q10,0 10,10v1.765625q0,10 10,10M15,21.765625q-10,0 -10,10v1.765625q0,10 10,10h82.875q10,0 10,-10v-1.765625q0,-10 -10,-10M107.875,36.765625l5,-5m-5,5l-5,-5" transform="matrix(1,0,0,1,10,21) matrix(1,0,0,1,0,5.9844)"/><g class="any-character"><g class="label" transform="matrix(1,0,0,1,10,21) matrix(1,0,0,1,0,5.9844) matrix(1,0,0,1,15,10)"><rect width="82.875" height="23.531"/><text x="0" y="0" transform="matrix(1,0,0,1,5,16.7656)"><tspan>any character</tspan></text></g></g></g><g class="match-fragment charset" transform="matrix(1,0,0,1,10,21) matrix(1,0,0,1,122.875,0)"><rect width="73.344" height="33.5" class="charset-box" rx="3" ry="3" transform="matrix(1,0,0,1,0,11)"/><text x="0" y="0" class="charset-label" transform="matrix(1,0,0,1,0,11)"><tspan>One of:</tspan></text><g><g class="charset-range"><text x="0" y="0" transform="matrix(1,0,0,1,5,16) matrix(1,0,0,1,0,0) matrix(1,0,0,1,29.6719,16)">-</text><g class="literal"><g class="label" transform="matrix(1,0,0,1,5,16) matrix(1,0,0,1,0,0) matrix(1,0,0,1,0,0)"><rect width="24.672" height="23.5" rx="3" ry="3"/><text x="0" y="0" transform="matrix(1,0,0,1,5,16.75)"><tspan class="quote">“</tspan><tspan>0</tspan><tspan class="quote">”</tspan></text></g></g><g class="literal"><g class="label" transform="matrix(1,0,0,1,5,16) matrix(1,0,0,1,0,0) matrix(1,0,0,1,38.6719,0)"><rect width="24.672" height="23.5" rx="3" ry="3"/><text x="0" y="0" transform="matrix(1,0,0,1,5,16.75)"><tspan class="quote">“</tspan><tspan>9</tspan><tspan class="quote">”</tspan></text></g></g></g></g></g></g></g><g class="match-fragment subexp" transform="matrix(1,0,0,1,10,21.1094) matrix(1,0,0,1,20,0) matrix(1,0,0,1,1.3281,0) matrix(1,0,0,1,226.2188,0)"><rect width="215.547" height="69.516" class="subexp-box" rx="3" ry="3" transform="matrix(1,0,0,1,0,11)"/><text x="0" y="0" class="subexp-label" transform="matrix(1,0,0,1,0,11)"><tspan>positive lookahead</tspan></text><g class="regexp match"><path d="M97.875,27.750025H122.875" transform="matrix(1,0,0,1,10,21)"/><g class="match-fragment"><path d="M0,21.765625q10,0 10,-10v-1.765625q0,-10 10,-10h72.875q10,0 10,10v1.765625q0,10 10,10M15,21.765625q-10,0 -10,10v1.765625q0,10 10,10h82.875q10,0 10,-10v-1.765625q0,-10 -10,-10M107.875,36.765625l5,-5m-5,5l-5,-5" transform="matrix(1,0,0,1,10,21) matrix(1,0,0,1,0,5.9844)"/><g class="any-character"><g class="label" transform="matrix(1,0,0,1,10,21) matrix(1,0,0,1,0,5.9844) matrix(1,0,0,1,15,10)"><rect width="82.875" height="23.531"/><text x="0" y="0" transform="matrix(1,0,0,1,5,16.7656)"><tspan>any character</tspan></text></g></g></g><g class="match-fragment charset" transform="matrix(1,0,0,1,10,21) matrix(1,0,0,1,122.875,0)"><rect width="72.672" height="33.5" class="charset-box" rx="3" ry="3" transform="matrix(1,0,0,1,0,11)"/><text x="0" y="0" class="charset-label" transform="matrix(1,0,0,1,0,11)"><tspan>One of:</tspan></text><g><g class="charset-range"><text x="0" y="0" transform="matrix(1,0,0,1,5,16) matrix(1,0,0,1,0,0) matrix(1,0,0,1,29.6719,16)">-</text><g class="literal"><g class="label" transform="matrix(1,0,0,1,5,16) matrix(1,0,0,1,0,0) matrix(1,0,0,1,0,0)"><rect width="24.672" height="23.5" rx="3" ry="3"/><text x="0" y="0" transform="matrix(1,0,0,1,5,16.75)"><tspan class="quote">“</tspan><tspan>a</tspan><tspan class="quote">”</tspan></text></g></g><g class="literal"><g class="label" transform="matrix(1,0,0,1,5,16) matrix(1,0,0,1,0,0) matrix(1,0,0,1,38.6719,0)"><rect width="24" height="23.5" rx="3" ry="3"/><text x="0" y="0" transform="matrix(1,0,0,1,5,16.75)"><tspan class="quote">“</tspan><tspan>z</tspan><tspan class="quote">”</tspan></text></g></g></g></g></g></g></g></g><g class="match"><path d="M206.21878051757812,48.750025H251.2188" transform="matrix(1,0,0,1,10,21.1094) matrix(1,0,0,1,20,0) matrix(1,0,0,1,0,85.5156)"/><g class="match-fragment subexp" transform="matrix(1,0,0,1,10,21.1094) matrix(1,0,0,1,20,0) matrix(1,0,0,1,0,85.5156) matrix(1,0,0,1,0,0)"><rect width="216.219" height="69.516" class="subexp-box" rx="3" ry="3" transform="matrix(1,0,0,1,0,11)"/><text x="0" y="0" class="subexp-label" transform="matrix(1,0,0,1,0,11)"><tspan>positive lookahead</tspan></text><g class="regexp match"><path d="M97.875,27.750025H122.875" transform="matrix(1,0,0,1,10,21)"/><g class="match-fragment"><path d="M0,21.765625q10,0 10,-10v-1.765625q0,-10 10,-10h72.875q10,0 10,10v1.765625q0,10 10,10M15,21.765625q-10,0 -10,10v1.765625q0,10 10,10h82.875q10,0 10,-10v-1.765625q0,-10 -10,-10M107.875,36.765625l5,-5m-5,5l-5,-5" transform="matrix(1,0,0,1,10,21) matrix(1,0,0,1,0,5.9844)"/><g class="any-character"><g class="label" transform="matrix(1,0,0,1,10,21) matrix(1,0,0,1,0,5.9844) matrix(1,0,0,1,15,10)"><rect width="82.875" height="23.531"/><text x="0" y="0" transform="matrix(1,0,0,1,5,16.7656)"><tspan>any character</tspan></text></g></g></g><g class="match-fragment charset" transform="matrix(1,0,0,1,10,21) matrix(1,0,0,1,122.875,0)"><rect width="73.344" height="33.5" class="charset-box" rx="3" ry="3" transform="matrix(1,0,0,1,0,11)"/><text x="0" y="0" class="charset-label" transform="matrix(1,0,0,1,0,11)"><tspan>One of:</tspan></text><g><g class="charset-range"><text x="0" y="0" transform="matrix(1,0,0,1,5,16) matrix(1,0,0,1,0,0) matrix(1,0,0,1,29.6719,16)">-</text><g class="literal"><g class="label" transform="matrix(1,0,0,1,5,16) matrix(1,0,0,1,0,0) matrix(1,0,0,1,0,0)"><rect width="24.672" height="23.5" rx="3" ry="3"/><text x="0" y="0" transform="matrix(1,0,0,1,5,16.75)"><tspan class="quote">“</tspan><tspan>0</tspan><tspan class="quote">”</tspan></text></g></g><g class="literal"><g class="label" transform="matrix(1,0,0,1,5,16) matrix(1,0,0,1,0,0) matrix(1,0,0,1,38.6719,0)"><rect width="24.672" height="23.5" rx="3" ry="3"/><text x="0" y="0" transform="matrix(1,0,0,1,5,16.75)"><tspan class="quote">“</tspan><tspan>9</tspan><tspan class="quote">”</tspan></text></g></g></g></g></g></g></g><g class="match-fragment subexp" transform="matrix(1,0,0,1,10,21.1094) matrix(1,0,0,1,20,0) matrix(1,0,0,1,0,85.5156) matrix(1,0,0,1,226.2188,0)"><rect width="218.203" height="69.516" class="subexp-box" rx="3" ry="3" transform="matrix(1,0,0,1,0,11)"/><text x="0" y="0" class="subexp-label" transform="matrix(1,0,0,1,0,11)"><tspan>positive lookahead</tspan></text><g class="regexp match"><path d="M97.875,27.750025H122.875" transform="matrix(1,0,0,1,10,21)"/><g class="match-fragment"><path d="M0,21.765625q10,0 10,-10v-1.765625q0,-10 10,-10h72.875q10,0 10,10v1.765625q0,10 10,10M15,21.765625q-10,0 -10,10v1.765625q0,10 10,10h82.875q10,0 10,-10v-1.765625q0,-10 -10,-10M107.875,36.765625l5,-5m-5,5l-5,-5" transform="matrix(1,0,0,1,10,21) matrix(1,0,0,1,0,5.9844)"/><g class="any-character"><g class="label" transform="matrix(1,0,0,1,10,21) matrix(1,0,0,1,0,5.9844) matrix(1,0,0,1,15,10)"><rect width="82.875" height="23.531"/><text x="0" y="0" transform="matrix(1,0,0,1,5,16.7656)"><tspan>any character</tspan></text></g></g></g><g class="match-fragment charset" transform="matrix(1,0,0,1,10,21) matrix(1,0,0,1,122.875,0)"><rect width="75.328" height="33.5" class="charset-box" rx="3" ry="3" transform="matrix(1,0,0,1,0,11)"/><text x="0" y="0" class="charset-label" transform="matrix(1,0,0,1,0,11)"><tspan>One of:</tspan></text><g><g class="charset-range"><text x="0" y="0" transform="matrix(1,0,0,1,5,16) matrix(1,0,0,1,0,0) matrix(1,0,0,1,31,16)">-</text><g class="literal"><g class="label" transform="matrix(1,0,0,1,5,16) matrix(1,0,0,1,0,0) matrix(1,0,0,1,0,0)"><rect width="26" height="23.5" rx="3" ry="3"/><text x="0" y="0" transform="matrix(1,0,0,1,5,16.75)"><tspan class="quote">“</tspan><tspan>A</tspan><tspan class="quote">”</tspan></text></g></g><g class="literal"><g class="label" transform="matrix(1,0,0,1,5,16) matrix(1,0,0,1,0,0) matrix(1,0,0,1,40,0)"><rect width="25.328" height="23.5" rx="3" ry="3"/><text x="0" y="0" transform="matrix(1,0,0,1,5,16.75)"><tspan class="quote">“</tspan><tspan>Z</tspan><tspan class="quote">”</tspan></text></g></g></g></g></g></g></g></g><g class="match"><path d="M208.203125,48.750025H253.2031" transform="matrix(1,0,0,1,10,21.1094) matrix(1,0,0,1,20,0) matrix(1,0,0,1,0.336,171.0313)"/><g class="match-fragment subexp" transform="matrix(1,0,0,1,10,21.1094) matrix(1,0,0,1,20,0) matrix(1,0,0,1,0.336,171.0313) matrix(1,0,0,1,0,0)"><rect width="218.203" height="69.516" class="subexp-box" rx="3" ry="3" transform="matrix(1,0,0,1,0,11)"/><text x="0" y="0" class="subexp-label" transform="matrix(1,0,0,1,0,11)"><tspan>positive lookahead</tspan></text><g class="regexp match"><path d="M97.875,27.750025H122.875" transform="matrix(1,0,0,1,10,21)"/><g class="match-fragment"><path d="M0,21.765625q10,0 10,-10v-1.765625q0,-10 10,-10h72.875q10,0 10,10v1.765625q0,10 10,10M15,21.765625q-10,0 -10,10v1.765625q0,10 10,10h82.875q10,0 10,-10v-1.765625q0,-10 -10,-10M107.875,36.765625l5,-5m-5,5l-5,-5" transform="matrix(1,0,0,1,10,21) matrix(1,0,0,1,0,5.9844)"/><g class="any-character"><g class="label" transform="matrix(1,0,0,1,10,21) matrix(1,0,0,1,0,5.9844) matrix(1,0,0,1,15,10)"><rect width="82.875" height="23.531"/><text x="0" y="0" transform="matrix(1,0,0,1,5,16.7656)"><tspan>any character</tspan></text></g></g></g><g class="match-fragment charset" transform="matrix(1,0,0,1,10,21) matrix(1,0,0,1,122.875,0)"><rect width="75.328" height="33.5" class="charset-box" rx="3" ry="3" transform="matrix(1,0,0,1,0,11)"/><text x="0" y="0" class="charset-label" transform="matrix(1,0,0,1,0,11)"><tspan>One of:</tspan></text><g><g class="charset-range"><text x="0" y="0" transform="matrix(1,0,0,1,5,16) matrix(1,0,0,1,0,0) matrix(1,0,0,1,31,16)">-</text><g class="literal"><g class="label" transform="matrix(1,0,0,1,5,16) matrix(1,0,0,1,0,0) matrix(1,0,0,1,0,0)"><rect width="26" height="23.5" rx="3" ry="3"/><text x="0" y="0" transform="matrix(1,0,0,1,5,16.75)"><tspan class="quote">“</tspan><tspan>A</tspan><tspan class="quote">”</tspan></text></g></g><g class="literal"><g class="label" transform="matrix(1,0,0,1,5,16) matrix(1,0,0,1,0,0) matrix(1,0,0,1,40,0)"><rect width="25.328" height="23.5" rx="3" ry="3"/><text x="0" y="0" transform="matrix(1,0,0,1,5,16.75)"><tspan class="quote">“</tspan><tspan>Z</tspan><tspan class="quote">”</tspan></text></g></g></g></g></g></g></g><g class="match-fragment subexp" transform="matrix(1,0,0,1,10,21.1094) matrix(1,0,0,1,20,0) matrix(1,0,0,1,0.336,171.0313) matrix(1,0,0,1,228.2031,0)"><rect width="215.547" height="69.516" class="subexp-box" rx="3" ry="3" transform="matrix(1,0,0,1,0,11)"/><text x="0" y="0" class="subexp-label" transform="matrix(1,0,0,1,0,11)"><tspan>positive lookahead</tspan></text><g class="regexp match"><path d="M97.875,27.750025H122.875" transform="matrix(1,0,0,1,10,21)"/><g class="match-fragment"><path d="M0,21.765625q10,0 10,-10v-1.765625q0,-10 10,-10h72.875q10,0 10,10v1.765625q0,10 10,10M15,21.765625q-10,0 -10,10v1.765625q0,10 10,10h82.875q10,0 10,-10v-1.765625q0,-10 -10,-10M107.875,36.765625l5,-5m-5,5l-5,-5" transform="matrix(1,0,0,1,10,21) matrix(1,0,0,1,0,5.9844)"/><g class="any-character"><g class="label" transform="matrix(1,0,0,1,10,21) matrix(1,0,0,1,0,5.9844) matrix(1,0,0,1,15,10)"><rect width="82.875" height="23.531"/><text x="0" y="0" transform="matrix(1,0,0,1,5,16.7656)"><tspan>any character</tspan></text></g></g></g><g class="match-fragment charset" transform="matrix(1,0,0,1,10,21) matrix(1,0,0,1,122.875,0)"><rect width="72.672" height="33.5" class="charset-box" rx="3" ry="3" transform="matrix(1,0,0,1,0,11)"/><text x="0" y="0" class="charset-label" transform="matrix(1,0,0,1,0,11)"><tspan>One of:</tspan></text><g><g class="charset-range"><text x="0" y="0" transform="matrix(1,0,0,1,5,16) matrix(1,0,0,1,0,0) matrix(1,0,0,1,29.6719,16)">-</text><g class="literal"><g class="label" transform="matrix(1,0,0,1,5,16) matrix(1,0,0,1,0,0) matrix(1,0,0,1,0,0)"><rect width="24.672" height="23.5" rx="3" ry="3"/><text x="0" y="0" transform="matrix(1,0,0,1,5,16.75)"><tspan class="quote">“</tspan><tspan>a</tspan><tspan class="quote">”</tspan></text></g></g><g class="literal"><g class="label" transform="matrix(1,0,0,1,5,16) matrix(1,0,0,1,0,0) matrix(1,0,0,1,38.6719,0)"><rect width="24" height="23.5" rx="3" ry="3"/><text x="0" y="0" transform="matrix(1,0,0,1,5,16.75)"><tspan class="quote">“</tspan><tspan>z</tspan><tspan class="quote">”</tspan></text></g></g></g></g></g></g></g></g></g></g></g><g class="match-fragment"><g class="label anchor" transform="matrix(1,0,0,1,10,0) matrix(1,0,0,1,514.4219,135.1329)"><rect width="70.703" height="23.5"/><text x="0" y="0" transform="matrix(1,0,0,1,5,16.75)"><tspan>Start of line</tspan></text></g></g><g class="match-fragment"><path d="M10,56.25q-10,0 -10,10v35.25q0,10 10,10h75.328125q10,0 10,-10v-35.25q0,-10 -10,-10M95.328125,71.25l5,-5m-5,5l-5,-5" transform="matrix(1,0,0,1,10,0) matrix(1,0,0,1,595.1251,90.6329)"/><g class="charset" transform="matrix(1,0,0,1,10,0) matrix(1,0,0,1,595.1251,90.6329) matrix(1,0,0,1,10,0)"><rect width="75.328" height="90.5" class="charset-box" rx="3" ry="3" transform="matrix(1,0,0,1,0,11)"/><text x="0" y="0" class="charset-label" transform="matrix(1,0,0,1,0,11)"><tspan>One of:</tspan></text><g><g class="charset-range"><text x="0" y="0" transform="matrix(1,0,0,1,5,16) matrix(1,0,0,1,0.9922,0) matrix(1,0,0,1,29.6719,16)">-</text><g class="literal"><g class="label" transform="matrix(1,0,0,1,5,16) matrix(1,0,0,1,0.9922,0) matrix(1,0,0,1,0,0)"><rect width="24.672" height="23.5" rx="3" ry="3"/><text x="0" y="0" transform="matrix(1,0,0,1,5,16.75)"><tspan class="quote">“</tspan><tspan>0</tspan><tspan class="quote">”</tspan></text></g></g><g class="literal"><g class="label" transform="matrix(1,0,0,1,5,16) matrix(1,0,0,1,0.9922,0) matrix(1,0,0,1,38.6719,0)"><rect width="24.672" height="23.5" rx="3" ry="3"/><text x="0" y="0" transform="matrix(1,0,0,1,5,16.75)"><tspan class="quote">“</tspan><tspan>9</tspan><tspan class="quote">”</tspan></text></g></g></g><g class="charset-range"><text x="0" y="0" transform="matrix(1,0,0,1,5,16) matrix(1,0,0,1,1.3281,28.5) matrix(1,0,0,1,29.6719,16)">-</text><g class="literal"><g class="label" transform="matrix(1,0,0,1,5,16) matrix(1,0,0,1,1.3281,28.5) matrix(1,0,0,1,0,0)"><rect width="24.672" height="23.5" rx="3" ry="3"/><text x="0" y="0" transform="matrix(1,0,0,1,5,16.75)"><tspan class="quote">“</tspan><tspan>a</tspan><tspan class="quote">”</tspan></text></g></g><g class="literal"><g class="label" transform="matrix(1,0,0,1,5,16) matrix(1,0,0,1,1.3281,28.5) matrix(1,0,0,1,38.6719,0)"><rect width="24" height="23.5" rx="3" ry="3"/><text x="0" y="0" transform="matrix(1,0,0,1,5,16.75)"><tspan class="quote">“</tspan><tspan>z</tspan><tspan class="quote">”</tspan></text></g></g></g><g class="charset-range"><text x="0" y="0" transform="matrix(1,0,0,1,5,16) matrix(1,0,0,1,0,57) matrix(1,0,0,1,31,16)">-</text><g class="literal"><g class="label" transform="matrix(1,0,0,1,5,16) matrix(1,0,0,1,0,57) matrix(1,0,0,1,0,0)"><rect width="26" height="23.5" rx="3" ry="3"/><text x="0" y="0" transform="matrix(1,0,0,1,5,16.75)"><tspan class="quote">“</tspan><tspan>A</tspan><tspan class="quote">”</tspan></text></g></g><g class="literal"><g class="label" transform="matrix(1,0,0,1,5,16) matrix(1,0,0,1,0,57) matrix(1,0,0,1,40,0)"><rect width="25.328" height="23.5" rx="3" ry="3"/><text x="0" y="0" transform="matrix(1,0,0,1,5,16.75)"><tspan class="quote">“</tspan><tspan>Z</tspan><tspan class="quote">”</tspan></text></g></g></g></g></g><text x="0" y="0" class="repeat-label" transform="matrix(1,0,0,1,10,0) matrix(1,0,0,1,595.1251,90.6329) matrix(1,0,0,1,47.7031,122.5)"><tspan>5…11 times</tspan><title><text x="0" y="0">repeats 6…12 times in total</text></title></text></g><g class="match-fragment"><g class="label anchor" transform="matrix(1,0,0,1,10,0) matrix(1,0,0,1,705.4532,135.1329)"><rect width="66.719" height="23.5"/><text x="0" y="0" transform="matrix(1,0,0,1,5,16.75)"><tspan>End of line</tspan></text></g></g></g><path d="M20,146.88286801757812H0M782.17195,146.88286801757812H792.1719360351562"/><circle cx="0" cy="146.883" r="5"/><circle cx="792.172" cy="146.883" r="5"/></g></svg>