<svg xmlns="http://www.w3.org/2000/svg" width="168.344" height="66.5" version="1.1"><defs><style type="text/css">svg{background-color:#fff}.root text,.root tspan{font:12px Arial}.root circle,.root path{stroke-width:2px;stroke:#000}.root path{fill-opacity:0}.root circle{fill:#6b6659}.literal text{fill:#000}.literal rect{fill:#dae9e5}.match-fragment .repeat-label tspan{font-size:10px}.repeat-label{cursor:help}.quote{fill:#908c83}</style></defs><metadata/><desc>Created with Snap</desc><g class="root" transform="matrix(1,0,0,1,15,10)"><g class="regexp match"><path d="M24.671875,11.75H44.6719M69.343775,11.75H94.3438" transform="matrix(1,0,0,1,10,0)"/><g class="match-fragment literal"><g class="label" transform="matrix(1,0,0,1,10,0) matrix(1,0,0,1,0,0)"><rect width="24.672" height="23.5" rx="3" ry="3"/><text x="0" y="0" transform="matrix(1,0,0,1,5,16.75)"><tspan class="quote">“</tspan><tspan>a</tspan><tspan class="quote">”</tspan></text></g></g><g class="match-fragment"><path d="M10,11.75q-10,0 -10,10v1.75q0,10 10,10h24.671875q10,0 10,-10v-1.75q0,-10 -10,-10M44.671875,26.75l5,-5m-5,5l-5,-5" transform="matrix(1,0,0,1,10,0) matrix(1,0,0,1,34.6719,0)"/><g class="literal"><g class="label" transform="matrix(1,0,0,1,10,0) matrix(1,0,0,1,34.6719,0) matrix(1,0,0,1,10,0)"><rect width="24.672" height="23.5" rx="3" ry="3"/><text x="0" y="0" transform="matrix(1,0,0,1,5,16.75)"><tspan class="quote">“</tspan><tspan>b</tspan><tspan class="quote">”</tspan></text></g></g><text x="0" y="0" class="repeat-label" transform="matrix(1,0,0,1,10,0) matrix(1,0,0,1,34.6719,0) matrix(1,0,0,1,1.875,44.5)"><tspan>1…4 times</tspan><title><text x="0" y="0">repeats 2…5 times in total</text></title></text></g><g class="match-fragment literal"><g class="label" transform="matrix(1,0,0,1,10,0) matrix(1,0,0,1,94.3438,0)"><rect width="24" height="23.5" rx="3" ry="3"/><text x="0" y="0" transform="matrix(1,0,0,1,5,16.75)"><tspan class="quote">“</tspan><tspan>c</tspan><tspan class="quote">”</tspan></text></g></g></g><path d="M10,11.75H0M128.3438,11.75H138.34380340576172"/><circle cx="0" cy="11.75" r="5"/><circle cx="138.344" cy="11.75" r="5"/></g></svg>