<svg xmlns="http://www.w3.org/2000/svg" width="1055.781" height="136.531" version="1.1"><defs><style type="text/css">svg{background-color:#fff}.root text,.root tspan{font:12px Arial}.root circle,.root path{stroke-width:2px;stroke:#000}.root path{fill-opacity:0}.subexp .subexp-box{fill-opacity:0;stroke-width:2px;stroke:#908c83;stroke-dasharray:6,2}.root circle{fill:#6b6659}.anchor text{fill:#fff}.anchor rect{fill:#6b6659}.escape text{fill:#000}.escape rect{fill:#bada55}.subexp .subexp-label tspan{font-size:10px;dominant-baseline:text-after-edge}</style></defs><metadata/><desc>Created with Snap</desc><g class="root" transform="matrix(1,0,0,1,15,9.8906)"><g class="regexp match"><path d="M70.703125,75.0938H100.7031M246.74992500000002,75.09382500000001H286.7499M439.828025,75.09382500000001H449.8281M602.906225,75.09382500000001H612.9062M765.984325,75.09382500000001H775.9843M929.062425,75.09382500000001H939.0624" transform="matrix(1,0,0,1,10,0)"/><g class="match-fragment"><g class="label anchor" transform="matrix(1,0,0,1,10,0) matrix(1,0,0,1,0,63.3438)"><rect width="70.703" height="23.5"/><text x="0" y="0" transform="matrix(1,0,0,1,5,16.75)"><tspan>Start of line</tspan></text></g></g><g class="match-fragment subexp" transform="matrix(1,0,0,1,10,0) matrix(1,0,0,1,80.7031,0)"><rect width="196.047" height="105.531" class="subexp-box" rx="3" ry="3" transform="matrix(1,0,0,1,0,11.1094)"/><text x="0" y="0" class="subexp-label" transform="matrix(1,0,0,1,0,11.1094)"><tspan>group #1</tspan></text><g class="regexp match"><path d="M42.015625,53.984425H72.0156" transform="matrix(1,0,0,1,10,21.1094)"/><g class="match-fragment subexp" transform="matrix(1,0,0,1,10,21.1094) matrix(1,0,0,1,0,21.1094)"><rect width="52.016" height="43.531" class="subexp-box" rx="3" ry="3" transform="matrix(1,0,0,1,0,11.1094)"/><text x="0" y="0" class="subexp-label" transform="matrix(1,0,0,1,0,11.1094)"><tspan>group #2</tspan></text><g class="regexp match match-fragment escape"><g class="label" transform="matrix(1,0,0,1,10,21.1094)"><rect width="32.016" height="23.531" rx="3" ry="3"/><text x="0" y="0" transform="matrix(1,0,0,1,5,16.7656)"><tspan>digit</tspan></text></g></g></g><g class="match-fragment subexp" transform="matrix(1,0,0,1,10,21.1094) matrix(1,0,0,1,62.0156,0)"><rect width="114.031" height="74.531" class="subexp-box" rx="3" ry="3" transform="matrix(1,0,0,1,0,11.1094)"/><text x="0" y="0" class="subexp-label" transform="matrix(1,0,0,1,0,11.1094)"><tspan>group #3</tspan></text><g class="regexp match"><path d="M32.015625,32.875025H52.0156" transform="matrix(1,0,0,1,10,21.1094)"/><g class="match-fragment escape"><g class="label" transform="matrix(1,0,0,1,10,21.1094) matrix(1,0,0,1,0,21.1094)"><rect width="32.016" height="23.531" rx="3" ry="3"/><text x="0" y="0" transform="matrix(1,0,0,1,5,16.7656)"><tspan>digit</tspan></text></g></g><g class="match-fragment subexp" transform="matrix(1,0,0,1,10,21.1094) matrix(1,0,0,1,42.0156,0)"><rect width="52.016" height="43.531" class="subexp-box" rx="3" ry="3" transform="matrix(1,0,0,1,0,11.1094)"/><text x="0" y="0" class="subexp-label" transform="matrix(1,0,0,1,0,11.1094)"><tspan>group #4</tspan></text><g class="regexp match match-fragment escape"><g class="label" transform="matrix(1,0,0,1,10,21.1094)"><rect width="32.016" height="23.531" rx="3" ry="3"/><text x="0" y="0" transform="matrix(1,0,0,1,5,16.7656)"><tspan>digit</tspan></text></g></g></g></g></g></g></g><g class="match-fragment escape"><g class="label" transform="matrix(1,0,0,1,10,0) matrix(1,0,0,1,286.7499,63.3282)"><rect width="153.078" height="23.531" rx="3" ry="3"/><text x="0" y="0" transform="matrix(1,0,0,1,5,16.7656)"><tspan>Back reference (group = 1)</tspan></text></g></g><g class="match-fragment escape"><g class="label" transform="matrix(1,0,0,1,10,0) matrix(1,0,0,1,449.8281,63.3282)"><rect width="153.078" height="23.531" rx="3" ry="3"/><text x="0" y="0" transform="matrix(1,0,0,1,5,16.7656)"><tspan>Back reference (group = 2)</tspan></text></g></g><g class="match-fragment escape"><g class="label" transform="matrix(1,0,0,1,10,0) matrix(1,0,0,1,612.9062,63.3282)"><rect width="153.078" height="23.531" rx="3" ry="3"/><text x="0" y="0" transform="matrix(1,0,0,1,5,16.7656)"><tspan>Back reference (group = 3)</tspan></text></g></g><g class="match-fragment escape"><g class="label" transform="matrix(1,0,0,1,10,0) matrix(1,0,0,1,775.9843,63.3282)"><rect width="153.078" height="23.531" rx="3" ry="3"/><text x="0" y="0" transform="matrix(1,0,0,1,5,16.7656)"><tspan>Back reference (group = 4)</tspan></text></g></g><g class="match-fragment"><g class="label anchor" transform="matrix(1,0,0,1,10,0) matrix(1,0,0,1,939.0624,63.3438)"><rect width="66.719" height="23.5"/><text x="0" y="0" transform="matrix(1,0,0,1,5,16.75)"><tspan>End of line</tspan></text></g></g></g><path d="M10,75.0938H0M1015.78115,75.0938H1025.7811279296875"/><circle cx="0" cy="75.094" r="5"/><circle cx="1025.781" cy="75.094" r="5"/></g></svg>