<svg xmlns="http://www.w3.org/2000/svg" width="248.734" height="163.063" version="1.1"><defs><style type="text/css">svg{background-color:#fff}.root text,.root tspan{font:12px Arial}.root circle,.root path{stroke-width:2px;stroke:#000}.root path{fill-opacity:0}.subexp .subexp-box{fill-opacity:0;stroke-width:2px;stroke:#908c83;stroke-dasharray:6,2}.root circle{fill:#6b6659}.anchor text{fill:#fff}.anchor rect{fill:#6b6659}.escape text{fill:#000}.escape rect{fill:#bada55}.match-fragment .repeat-label tspan,.subexp .subexp-label tspan{font-size:10px}.repeat-label{cursor:help}.subexp .subexp-label tspan{dominant-baseline:text-after-edge}</style></defs><metadata/><desc>Created with Snap</desc><g class="root" transform="matrix(1,0,0,1,15,21)"><text x="0" y="0">Flags: Global</text><g class="regexp match match-fragment subexp" transform="matrix(1,0,0,1,10,13.5313)"><rect width="198.734" height="107.531" class="subexp-box" rx="3" ry="3" transform="matrix(1,0,0,1,0,11)"/><text x="0" y="0" class="subexp-label" transform="matrix(1,0,0,1,0,11)"><tspan>positive lookahead</tspan></text><g class="regexp match"><path d="M62.015625,32.875025H112.0157" transform="matrix(1,0,0,1,10,21)"/><g class="match-fragment"><path d="M10,32.875025q-10,0 -10,10v34.76567057189941q0,10 10,10h77.01567077636719q10,0 10,-10v-34.76567057189941q0,-10 -10,-10M97.01567077636719,47.875025l5,-5m-5,5l-5,-5" transform="matrix(1,0,0,1,10,21) matrix(1,0,0,1,0,0)"/><g class="subexp" transform="matrix(1,0,0,1,10,21) matrix(1,0,0,1,0,0) matrix(1,0,0,1,10,0)"><rect width="77.016" height="66.531" class="subexp-box" rx="3" ry="3" transform="matrix(1,0,0,1,0,11.1094)"/><text x="0" y="0" class="subexp-label" transform="matrix(1,0,0,1,0,11.1094)"><tspan>group #1</tspan></text><g class="regexp match match-fragment"><path d="M10,11.765625q-10,0 -10,10v1.765625q0,10 10,10h32.015625q10,0 10,-10v-1.765625q0,-10 -10,-10M52.015625,26.765625l5,-5m-5,5l-5,-5" transform="matrix(1,0,0,1,10,21.1094)"/><g class="escape"><g class="label" transform="matrix(1,0,0,1,10,21.1094) matrix(1,0,0,1,10,0)"><rect width="32.016" height="23.531" rx="3" ry="3"/><text x="0" y="0" transform="matrix(1,0,0,1,5,16.7656)"><tspan>digit</tspan></text></g></g><text x="0" y="0" class="repeat-label" transform="matrix(1,0,0,1,10,21.1094) matrix(1,0,0,1,24.7813,44.5313)"><tspan>2 times</tspan><title><text x="0" y="0">repeats 3 times in total</text></title></text></g></g></g><g class="match-fragment"><g class="label anchor" transform="matrix(1,0,0,1,10,21) matrix(1,0,0,1,112.0157,21.125)"><rect width="66.719" height="23.5"/><text x="0" y="0" transform="matrix(1,0,0,1,5,16.75)"><tspan>End of line</tspan></text></g></g></g></g><path d="M50,67.406325H0M198.73444999999998,67.406325H218.7344512939453"/><circle cx="0" cy="67.406" r="5"/><circle cx="218.734" cy="67.406" r="5"/></g></svg>