<svg xmlns="http://www.w3.org/2000/svg" width="609.813" height="74.5" version="1.1"><defs><style type="text/css">svg{background-color:#fff}.root text,.root tspan{font:12px Arial}.root circle,.root path{stroke-width:2px;stroke:#000}.root path{fill-opacity:0}.subexp .subexp-box{fill-opacity:0;stroke-width:2px;stroke:#908c83;stroke-dasharray:6,2}.root circle{fill:#6b6659}.anchor text{fill:#fff}.anchor rect{fill:#6b6659}.escape text,.literal text{fill:#000}.escape rect{fill:#bada55}.literal rect{fill:#dae9e5}.subexp .subexp-label tspan{font-size:10px;dominant-baseline:text-after-edge}.quote{fill:#908c83}</style></defs><metadata/><desc>Created with Snap</desc><g class="root" transform="matrix(1,0,0,1,15,9.8906)"><g class="regexp match"><path d="M70.703125,32.8594H80.7031M147.42185,32.8594H157.4219M246.812525,32.859425H256.8125M370.21875,32.859425H409.30469999999997M433.97657499999997,32.8594H504.1016" transform="matrix(1,0,0,1,10,0)"/><g class="match-fragment"><g class="label anchor" transform="matrix(1,0,0,1,10,0) matrix(1,0,0,1,0,21.1094)"><rect width="70.703" height="23.5"/><text x="0" y="0" transform="matrix(1,0,0,1,5,16.75)"><tspan>Start of line</tspan></text></g></g><g class="match-fragment"><g class="label anchor" transform="matrix(1,0,0,1,10,0) matrix(1,0,0,1,80.7031,21.1094)"><rect width="66.719" height="23.5"/><text x="0" y="0" transform="matrix(1,0,0,1,5,16.75)"><tspan>End of line</tspan></text></g></g><g class="match-fragment escape"><g class="label" transform="matrix(1,0,0,1,10,0) matrix(1,0,0,1,157.4219,21.0938)"><rect width="89.391" height="23.531" rx="3" ry="3"/><text x="0" y="0" transform="matrix(1,0,0,1,5,16.7656)"><tspan>word boundary</tspan></text></g></g><g class="match-fragment escape"><g class="label" transform="matrix(1,0,0,1,10,0) matrix(1,0,0,1,256.8125,21.0938)"><rect width="113.406" height="23.531" rx="3" ry="3"/><text x="0" y="0" transform="matrix(1,0,0,1,5,16.7656)"><tspan>non-word boundary</tspan></text></g></g><g class="match-fragment subexp" transform="matrix(1,0,0,1,10,0) matrix(1,0,0,1,380.2188,0.1094)"><rect width="82.844" height="43.5" class="subexp-box" rx="3" ry="3" transform="matrix(1,0,0,1,0,11)"/><text x="0" y="0" class="subexp-label" transform="matrix(1,0,0,1,0,11)"><tspan>positive lookahead</tspan></text><g class="regexp match match-fragment literal"><g class="label" transform="matrix(1,0,0,1,29.0859,21)"><rect width="24.672" height="23.5" rx="3" ry="3"/><text x="0" y="0" transform="matrix(1,0,0,1,5,16.75)"><tspan class="quote">“</tspan><tspan>p</tspan><tspan class="quote">”</tspan></text></g></g></g><g class="match-fragment subexp" transform="matrix(1,0,0,1,10,0) matrix(1,0,0,1,473.0625,0)"><rect width="86.75" height="43.5" class="subexp-box" rx="3" ry="3" transform="matrix(1,0,0,1,0,11.1094)"/><text x="0" y="0" class="subexp-label" transform="matrix(1,0,0,1,0,11.1094)"><tspan>negative lookahead</tspan></text><g class="regexp match match-fragment literal"><g class="label" transform="matrix(1,0,0,1,31.0391,21.1094)"><rect width="24.672" height="23.5" rx="3" ry="3"/><text x="0" y="0" transform="matrix(1,0,0,1,5,16.75)"><tspan class="quote">“</tspan><tspan>p</tspan><tspan class="quote">”</tspan></text></g></g></g></g><path d="M10,32.8594H0M538.773475,32.8594H579.8125"/><circle cx="0" cy="32.859" r="5"/><circle cx="579.813" cy="32.859" r="5"/></g></svg>