<svg xmlns="http://www.w3.org/2000/svg" width="793.5" height="410.594" version="1.1"><defs><style type="text/css">svg{background-color:#fff}.root text,.root tspan{font:12px Arial}.root circle,.root path{stroke-width:2px;stroke:#000}.root path{fill-opacity:0}.anchor rect,.root circle{fill:#6b6659}.anchor text{fill:#fff}.charset-escape text,.literal text{fill:#000}.charset-escape rect{fill:#bada55}.literal rect{fill:#dae9e5}.charset .charset-box{fill:#cbcbba}.charset .charset-label tspan,.subexp .subexp-label tspan{font-size:10px;dominant-baseline:text-after-edge}.subexp .subexp-box{stroke:#908c83;stroke-dasharray:6,2;stroke-width:2px;fill-opacity:0}.quote{fill:#908c83}</style></defs><metadata/><desc>Created with Snap</desc><g class="root" transform="matrix(1,0,0,1,15,9.8906)"><g class="regexp match"><path d="M70.703125,201.4063H80.7031M156.031225,201.4063H166.0313M190.703175,201.4063H235.7031M419.406225,201.40630551757812H489.4063M626.7813,201.40630551757812H676.7813" transform="matrix(1,0,0,1,10,0)"/><g class="match-fragment"><g class="label anchor" transform="matrix(1,0,0,1,10,0) matrix(1,0,0,1,0,189.6563)"><rect width="70.703" height="23.5"/><text x="0" y="0" transform="matrix(1,0,0,1,5,16.75)"><tspan>Start of line</tspan></text></g></g><g class="match-fragment charset" transform="matrix(1,0,0,1,10,0) matrix(1,0,0,1,80.7031,159.4063)"><rect width="75.328" height="62" class="charset-box" rx="3" ry="3" transform="matrix(1,0,0,1,0,11)"/><text x="0" y="0" class="charset-label" transform="matrix(1,0,0,1,0,11)"><tspan>One of:</tspan></text><g><g class="charset-range"><text x="0" y="0" transform="matrix(1,0,0,1,5,16) matrix(1,0,0,1,1.3281,0) matrix(1,0,0,1,29.6719,16)">-</text><g class="literal"><g class="label" transform="matrix(1,0,0,1,5,16) matrix(1,0,0,1,1.3281,0) matrix(1,0,0,1,0,0)"><rect width="24.672" height="23.5" rx="3" ry="3"/><text x="0" y="0" transform="matrix(1,0,0,1,5,16.75)"><tspan class="quote">“</tspan><tspan>a</tspan><tspan class="quote">”</tspan></text></g></g><g class="literal"><g class="label" transform="matrix(1,0,0,1,5,16) matrix(1,0,0,1,1.3281,0) matrix(1,0,0,1,38.6719,0)"><rect width="24" height="23.5" rx="3" ry="3"/><text x="0" y="0" transform="matrix(1,0,0,1,5,16.75)"><tspan class="quote">“</tspan><tspan>z</tspan><tspan class="quote">”</tspan></text></g></g></g><g class="charset-range"><text x="0" y="0" transform="matrix(1,0,0,1,5,16) matrix(1,0,0,1,0,28.5) matrix(1,0,0,1,31,16)">-</text><g class="literal"><g class="label" transform="matrix(1,0,0,1,5,16) matrix(1,0,0,1,0,28.5) matrix(1,0,0,1,0,0)"><rect width="26" height="23.5" rx="3" ry="3"/><text x="0" y="0" transform="matrix(1,0,0,1,5,16.75)"><tspan class="quote">“</tspan><tspan>A</tspan><tspan class="quote">”</tspan></text></g></g><g class="literal"><g class="label" transform="matrix(1,0,0,1,5,16) matrix(1,0,0,1,0,28.5) matrix(1,0,0,1,40,0)"><rect width="25.328" height="23.5" rx="3" ry="3"/><text x="0" y="0" transform="matrix(1,0,0,1,5,16.75)"><tspan class="quote">“</tspan><tspan>Z</tspan><tspan class="quote">”</tspan></text></g></g></g></g></g><g class="match-fragment literal"><g class="label" transform="matrix(1,0,0,1,10,0) matrix(1,0,0,1,166.0313,189.6563)"><rect width="24.672" height="23.5" rx="3" ry="3"/><text x="0" y="0" transform="matrix(1,0,0,1,5,16.75)"><tspan class="quote">“</tspan><tspan>:\</tspan><tspan class="quote">”</tspan></text></g></g><g class="match-fragment"><path d="M0,201.40630551757812q10,0 10,-10v-181.2969057220459q0,-10 10,-10h203.703125q10,0 10,10v181.2969057220459q0,10 10,10M15,201.40630551757812q-10,0 -10,10v169.29690531311036q0,10 10,10h213.703125q10,0 10,-10v-169.29690531311036q0,-10 -10,-10M238.703125,216.40630551757812l5,-5m-5,5l-5,-5" transform="matrix(1,0,0,1,10,0) matrix(1,0,0,1,200.7031,0)"/><g class="subexp" transform="matrix(1,0,0,1,10,0) matrix(1,0,0,1,200.7031,0) matrix(1,0,0,1,15,10)"><rect width="213.703" height="359.594" class="subexp-box" rx="3" ry="3" transform="matrix(1,0,0,1,0,11.1094)"/><text x="0" y="0" class="subexp-label" transform="matrix(1,0,0,1,0,11.1094)"><tspan>group #1</tspan></text><g class="regexp match"><path d="M147.375,170.29690551757812H172.375" transform="matrix(1,0,0,1,10,21.1094)"/><g class="match-fragment"><path d="M10,170.29690551757812q-10,0 -10,10v149.29690551757812q0,10 10,10h137.375q10,0 10,-10v-149.29690551757812q0,-10 -10,-10M157.375,185.29690551757812l5,-5m-5,5l-5,-5" transform="matrix(1,0,0,1,10,21.1094) matrix(1,0,0,1,0,0)"/><g class="charset" transform="matrix(1,0,0,1,10,21.1094) matrix(1,0,0,1,0,0) matrix(1,0,0,1,10,0)"><rect width="137.375" height="318.594" class="charset-box" rx="3" ry="3" transform="matrix(1,0,0,1,0,11)"/><text x="0" y="0" class="charset-label" transform="matrix(1,0,0,1,0,11)"><tspan>None of:</tspan></text><g><g class="literal"><g class="label" transform="matrix(1,0,0,1,5,16) matrix(1,0,0,1,53.0234,0)"><rect width="21.328" height="23.5" rx="3" ry="3"/><text x="0" y="0" transform="matrix(1,0,0,1,5,16.75)"><tspan class="quote">“</tspan><tspan>\</tspan><tspan class="quote">”</tspan></text></g></g><g class="literal"><g class="label" transform="matrix(1,0,0,1,5,16) matrix(1,0,0,1,53.0234,28.5)"><rect width="21.328" height="23.5" rx="3" ry="3"/><text x="0" y="0" transform="matrix(1,0,0,1,5,16.75)"><tspan class="quote">“</tspan><tspan>:</tspan><tspan class="quote">”</tspan></text></g></g><g class="literal"><g class="label" transform="matrix(1,0,0,1,5,16) matrix(1,0,0,1,52.3516,57)"><rect width="22.672" height="23.5" rx="3" ry="3"/><text x="0" y="0" transform="matrix(1,0,0,1,5,16.75)"><tspan class="quote">“</tspan><tspan>*</tspan><tspan class="quote">”</tspan></text></g></g><g class="literal"><g class="label" transform="matrix(1,0,0,1,5,16) matrix(1,0,0,1,51.1875,85.5)"><rect width="25" height="23.5" rx="3" ry="3"/><text x="0" y="0" transform="matrix(1,0,0,1,5,16.75)"><tspan class="quote">“</tspan><tspan>&lt;</tspan><tspan class="quote">”</tspan></text></g></g><g class="literal"><g class="label" transform="matrix(1,0,0,1,5,16) matrix(1,0,0,1,51.1875,114)"><rect width="25" height="23.5" rx="3" ry="3"/><text x="0" y="0" transform="matrix(1,0,0,1,5,16.75)"><tspan class="quote">“</tspan><tspan>&gt;</tspan><tspan class="quote">”</tspan></text></g></g><g class="literal"><g class="label" transform="matrix(1,0,0,1,5,16) matrix(1,0,0,1,53.1328,142.5)"><rect width="21.109" height="23.531" rx="3" ry="3"/><text x="0" y="0" transform="matrix(1,0,0,1,5,16.7656)"><tspan class="quote">“</tspan><tspan>|</tspan><tspan class="quote">”</tspan></text></g></g><g class="literal"><g class="label" transform="matrix(1,0,0,1,5,16) matrix(1,0,0,1,52.5547,171.0313)"><rect width="22.266" height="23.5" rx="3" ry="3"/><text x="0" y="0" transform="matrix(1,0,0,1,5,16.75)"><tspan class="quote">“</tspan><tspan>&quot;</tspan><tspan class="quote">”</tspan></text></g></g><g class="literal"><g class="label" transform="matrix(1,0,0,1,5,16) matrix(1,0,0,1,51.3516,199.5313)"><rect width="24.672" height="23.5" rx="3" ry="3"/><text x="0" y="0" transform="matrix(1,0,0,1,5,16.75)"><tspan class="quote">“</tspan><tspan>?</tspan><tspan class="quote">”</tspan></text></g></g><g class="charset-escape"><g class="label" transform="matrix(1,0,0,1,5,16) matrix(1,0,0,1,0,228.0313)"><rect width="127.375" height="23.531" rx="3" ry="3"/><text x="0" y="0" transform="matrix(1,0,0,1,5,16.7656)"><tspan>carriage return (0x0D)</tspan></text></g></g><g class="charset-escape"><g class="label" transform="matrix(1,0,0,1,5,16) matrix(1,0,0,1,16.6641,256.5625)"><rect width="94.047" height="23.531" rx="3" ry="3"/><text x="0" y="0" transform="matrix(1,0,0,1,5,16.7656)"><tspan>line feed (0x0A)</tspan></text></g></g><g class="literal"><g class="label" transform="matrix(1,0,0,1,5,16) matrix(1,0,0,1,53.0234,285.0938)"><rect width="21.328" height="23.5" rx="3" ry="3"/><text x="0" y="0" transform="matrix(1,0,0,1,5,16.75)"><tspan class="quote">“</tspan><tspan>/</tspan><tspan class="quote">”</tspan></text></g></g></g></g></g><g class="match-fragment literal"><g class="label" transform="matrix(1,0,0,1,10,21.1094) matrix(1,0,0,1,172.375,158.5469)"><rect width="21.328" height="23.5" rx="3" ry="3"/><text x="0" y="0" transform="matrix(1,0,0,1,5,16.75)"><tspan class="quote">“</tspan><tspan>\</tspan><tspan class="quote">”</tspan></text></g></g></g></g></g><g class="match-fragment"><path d="M0,201.40630551757812q10,0 10,-10v-181.2969057220459q0,-10 10,-10h172.375q10,0 10,10v181.2969057220459q0,10 10,10" transform="matrix(1,0,0,1,10,0) matrix(1,0,0,1,454.4063,0)"/><g class="subexp" transform="matrix(1,0,0,1,10,0) matrix(1,0,0,1,454.4063,0) matrix(1,0,0,1,15,10)"><rect width="182.375" height="359.594" class="subexp-box" rx="3" ry="3" transform="matrix(1,0,0,1,0,11.1094)"/><text x="0" y="0" class="subexp-label" transform="matrix(1,0,0,1,0,11.1094)"><tspan>group #2</tspan></text><g class="regexp match match-fragment"><path d="M10,170.29690551757812q-10,0 -10,10v149.29690551757812q0,10 10,10h137.375q10,0 10,-10v-149.29690551757812q0,-10 -10,-10M157.375,185.29690551757812l5,-5m-5,5l-5,-5" transform="matrix(1,0,0,1,10,21.1094)"/><g class="charset" transform="matrix(1,0,0,1,10,21.1094) matrix(1,0,0,1,10,0)"><rect width="137.375" height="318.594" class="charset-box" rx="3" ry="3" transform="matrix(1,0,0,1,0,11)"/><text x="0" y="0" class="charset-label" transform="matrix(1,0,0,1,0,11)"><tspan>None of:</tspan></text><g><g class="literal"><g class="label" transform="matrix(1,0,0,1,5,16) matrix(1,0,0,1,53.0234,0)"><rect width="21.328" height="23.5" rx="3" ry="3"/><text x="0" y="0" transform="matrix(1,0,0,1,5,16.75)"><tspan class="quote">“</tspan><tspan>\</tspan><tspan class="quote">”</tspan></text></g></g><g class="literal"><g class="label" transform="matrix(1,0,0,1,5,16) matrix(1,0,0,1,53.0234,28.5)"><rect width="21.328" height="23.5" rx="3" ry="3"/><text x="0" y="0" transform="matrix(1,0,0,1,5,16.75)"><tspan class="quote">“</tspan><tspan>:</tspan><tspan class="quote">”</tspan></text></g></g><g class="literal"><g class="label" transform="matrix(1,0,0,1,5,16) matrix(1,0,0,1,52.3516,57)"><rect width="22.672" height="23.5" rx="3" ry="3"/><text x="0" y="0" transform="matrix(1,0,0,1,5,16.75)"><tspan class="quote">“</tspan><tspan>*</tspan><tspan class="quote">”</tspan></text></g></g><g class="literal"><g class="label" transform="matrix(1,0,0,1,5,16) matrix(1,0,0,1,51.1875,85.5)"><rect width="25" height="23.5" rx="3" ry="3"/><text x="0" y="0" transform="matrix(1,0,0,1,5,16.75)"><tspan class="quote">“</tspan><tspan>&lt;</tspan><tspan class="quote">”</tspan></text></g></g><g class="literal"><g class="label" transform="matrix(1,0,0,1,5,16) matrix(1,0,0,1,51.1875,114)"><rect width="25" height="23.5" rx="3" ry="3"/><text x="0" y="0" transform="matrix(1,0,0,1,5,16.75)"><tspan class="quote">“</tspan><tspan>&gt;</tspan><tspan class="quote">”</tspan></text></g></g><g class="literal"><g class="label" transform="matrix(1,0,0,1,5,16) matrix(1,0,0,1,53.1328,142.5)"><rect width="21.109" height="23.531" rx="3" ry="3"/><text x="0" y="0" transform="matrix(1,0,0,1,5,16.7656)"><tspan class="quote">“</tspan><tspan>|</tspan><tspan class="quote">”</tspan></text></g></g><g class="literal"><g class="label" transform="matrix(1,0,0,1,5,16) matrix(1,0,0,1,52.5547,171.0313)"><rect width="22.266" height="23.5" rx="3" ry="3"/><text x="0" y="0" transform="matrix(1,0,0,1,5,16.75)"><tspan class="quote">“</tspan><tspan>&quot;</tspan><tspan class="quote">”</tspan></text></g></g><g class="literal"><g class="label" transform="matrix(1,0,0,1,5,16) matrix(1,0,0,1,51.3516,199.5313)"><rect width="24.672" height="23.5" rx="3" ry="3"/><text x="0" y="0" transform="matrix(1,0,0,1,5,16.75)"><tspan class="quote">“</tspan><tspan>?</tspan><tspan class="quote">”</tspan></text></g></g><g class="charset-escape"><g class="label" transform="matrix(1,0,0,1,5,16) matrix(1,0,0,1,0,228.0313)"><rect width="127.375" height="23.531" rx="3" ry="3"/><text x="0" y="0" transform="matrix(1,0,0,1,5,16.7656)"><tspan>carriage return (0x0D)</tspan></text></g></g><g class="charset-escape"><g class="label" transform="matrix(1,0,0,1,5,16) matrix(1,0,0,1,16.6641,256.5625)"><rect width="94.047" height="23.531" rx="3" ry="3"/><text x="0" y="0" transform="matrix(1,0,0,1,5,16.7656)"><tspan>line feed (0x0A)</tspan></text></g></g><g class="literal"><g class="label" transform="matrix(1,0,0,1,5,16) matrix(1,0,0,1,53.0234,285.0938)"><rect width="21.328" height="23.5" rx="3" ry="3"/><text x="0" y="0" transform="matrix(1,0,0,1,5,16.75)"><tspan class="quote">“</tspan><tspan>/</tspan><tspan class="quote">”</tspan></text></g></g></g></g></g></g></g><g class="match-fragment"><g class="label anchor" transform="matrix(1,0,0,1,10,0) matrix(1,0,0,1,676.7813,189.6563)"><rect width="66.719" height="23.5"/><text x="0" y="0" transform="matrix(1,0,0,1,5,16.75)"><tspan>End of line</tspan></text></g></g></g><path d="M10,201.4063H0M753.50005,201.4063H763.5000610351562"/><circle cx="0" cy="201.406" r="5"/><circle cx="763.5" cy="201.406" r="5"/></g></svg>