<svg xmlns="http://www.w3.org/2000/svg" width="663.453" height="194.5" version="1.1"><defs><style type="text/css">svg{background-color:#fff}.root text,.root tspan{font:12px Arial}.root circle,.root path{stroke-width:2px;stroke:#000}.root path{fill-opacity:0}.anchor rect,.root circle{fill:#6b6659}.anchor text{fill:#fff}.literal text{fill:#000}.literal rect{fill:#dae9e5}.charset .charset-box{fill:#cbcbba}.charset .charset-label tspan,.subexp .subexp-label tspan{font-size:10px;dominant-baseline:text-after-edge}.subexp .subexp-box{stroke:#908c83;stroke-dasharray:6,2;stroke-width:2px;fill-opacity:0}.quote{fill:#908c83}</style></defs><metadata/><desc>Created with Snap</desc><g class="root" transform="matrix(1,0,0,1,15,9.8906)"><g class="regexp match"><path d="M70.703125,92.8594H90.7031M268.71878603515626,92.8594H288.7188M310.046925,92.8594H330.0469M526.7344915527344,92.8594H546.7345" transform="matrix(1,0,0,1,10,0)"/><g class="match-fragment"><g class="label anchor" transform="matrix(1,0,0,1,10,0) matrix(1,0,0,1,0,81.1094)"><rect width="70.703" height="23.5"/><text x="0" y="0" transform="matrix(1,0,0,1,5,16.75)"><tspan>Start of line</tspan></text></g></g><g class="match-fragment subexp" transform="matrix(1,0,0,1,10,0) matrix(1,0,0,1,80.7031,0)"><rect width="198.016" height="163.5" class="subexp-box" rx="3" ry="3" transform="matrix(1,0,0,1,0,11.1094)"/><text x="0" y="0" class="subexp-label" transform="matrix(1,0,0,1,0,11.1094)"><tspan>group #1</tspan></text><g class="regexp"><path d="M10,37.75q0,-10 10,-10M168.01568603515625,37.75q0,-10 -10,-10M0,71.75c10,0 10,5.5 20,5.5M178.01568603515625,71.75c-10,0 -10,5.5 -20,5.5M10,116.75q0,10 10,10M168.01568603515625,116.75q0,10 -10,10M0,71.75q10,0 10,-10V37.75M178.01568603515625,71.75q-10,0 -10,-10V37.75M0,71.75q10,0 10,10V116.75M178.01568603515625,71.75q-10,0 -10,10V116.75" transform="matrix(1,0,0,1,10,21.1094)"/><g class="regexp-matches"><path d="M0,27.75h15M138.01568051757812,27.75H138.01568603515625M0,77.25h15M123.01568051757812,77.25H138.01568603515625M0,126.75h15M123.01568051757812,126.75H138.01568603515625" transform="matrix(1,0,0,1,10,21.1094) matrix(1,0,0,1,20,0)"/><g class="match"><path d="M39.671875,27.75H64.6719" transform="matrix(1,0,0,1,10,21.1094) matrix(1,0,0,1,20,0) matrix(1,0,0,1,0,0)"/><g class="match-fragment"><path d="M0,21.75q10,0 10,-10v-1.75q0,-10 10,-10h14.671875q10,0 10,10v1.75q0,10 10,10" transform="matrix(1,0,0,1,10,21.1094) matrix(1,0,0,1,20,0) matrix(1,0,0,1,0,0) matrix(1,0,0,1,0,6)"/><g class="literal"><g class="label" transform="matrix(1,0,0,1,10,21.1094) matrix(1,0,0,1,20,0) matrix(1,0,0,1,0,0) matrix(1,0,0,1,0,6) matrix(1,0,0,1,15,10)"><rect width="24.672" height="23.5" rx="3" ry="3"/><text x="0" y="0" transform="matrix(1,0,0,1,5,16.75)"><tspan class="quote">“</tspan><tspan>0</tspan><tspan class="quote">”</tspan></text></g></g></g><g class="match-fragment charset" transform="matrix(1,0,0,1,10,21.1094) matrix(1,0,0,1,20,0) matrix(1,0,0,1,0,0) matrix(1,0,0,1,64.6719,0)"><rect width="73.344" height="33.5" class="charset-box" rx="3" ry="3" transform="matrix(1,0,0,1,0,11)"/><text x="0" y="0" class="charset-label" transform="matrix(1,0,0,1,0,11)"><tspan>One of:</tspan></text><g><g class="charset-range"><text x="0" y="0" transform="matrix(1,0,0,1,5,16) matrix(1,0,0,1,0,0) matrix(1,0,0,1,29.6719,16)">-</text><g class="literal"><g class="label" transform="matrix(1,0,0,1,5,16) matrix(1,0,0,1,0,0) matrix(1,0,0,1,0,0)"><rect width="24.672" height="23.5" rx="3" ry="3"/><text x="0" y="0" transform="matrix(1,0,0,1,5,16.75)"><tspan class="quote">“</tspan><tspan>0</tspan><tspan class="quote">”</tspan></text></g></g><g class="literal"><g class="label" transform="matrix(1,0,0,1,5,16) matrix(1,0,0,1,0,0) matrix(1,0,0,1,38.6719,0)"><rect width="24.672" height="23.5" rx="3" ry="3"/><text x="0" y="0" transform="matrix(1,0,0,1,5,16.75)"><tspan class="quote">“</tspan><tspan>9</tspan><tspan class="quote">”</tspan></text></g></g></g></g></g></g><g class="match"><path d="M24.671875,27.75H34.6719" transform="matrix(1,0,0,1,10,21.1094) matrix(1,0,0,1,20,0) matrix(1,0,0,1,15,49.5)"/><g class="match-fragment literal"><g class="label" transform="matrix(1,0,0,1,10,21.1094) matrix(1,0,0,1,20,0) matrix(1,0,0,1,15,49.5) matrix(1,0,0,1,0,16)"><rect width="24.672" height="23.5" rx="3" ry="3"/><text x="0" y="0" transform="matrix(1,0,0,1,5,16.75)"><tspan class="quote">“</tspan><tspan>1</tspan><tspan class="quote">”</tspan></text></g></g><g class="match-fragment charset" transform="matrix(1,0,0,1,10,21.1094) matrix(1,0,0,1,20,0) matrix(1,0,0,1,15,49.5) matrix(1,0,0,1,34.6719,0)"><rect width="73.344" height="33.5" class="charset-box" rx="3" ry="3" transform="matrix(1,0,0,1,0,11)"/><text x="0" y="0" class="charset-label" transform="matrix(1,0,0,1,0,11)"><tspan>One of:</tspan></text><g><g class="charset-range"><text x="0" y="0" transform="matrix(1,0,0,1,5,16) matrix(1,0,0,1,0,0) matrix(1,0,0,1,29.6719,16)">-</text><g class="literal"><g class="label" transform="matrix(1,0,0,1,5,16) matrix(1,0,0,1,0,0) matrix(1,0,0,1,0,0)"><rect width="24.672" height="23.5" rx="3" ry="3"/><text x="0" y="0" transform="matrix(1,0,0,1,5,16.75)"><tspan class="quote">“</tspan><tspan>0</tspan><tspan class="quote">”</tspan></text></g></g><g class="literal"><g class="label" transform="matrix(1,0,0,1,5,16) matrix(1,0,0,1,0,0) matrix(1,0,0,1,38.6719,0)"><rect width="24.672" height="23.5" rx="3" ry="3"/><text x="0" y="0" transform="matrix(1,0,0,1,5,16.75)"><tspan class="quote">“</tspan><tspan>9</tspan><tspan class="quote">”</tspan></text></g></g></g></g></g></g><g class="match"><path d="M24.671875,27.75H34.6719" transform="matrix(1,0,0,1,10,21.1094) matrix(1,0,0,1,20,0) matrix(1,0,0,1,15,99)"/><g class="match-fragment literal"><g class="label" transform="matrix(1,0,0,1,10,21.1094) matrix(1,0,0,1,20,0) matrix(1,0,0,1,15,99) matrix(1,0,0,1,0,16)"><rect width="24.672" height="23.5" rx="3" ry="3"/><text x="0" y="0" transform="matrix(1,0,0,1,5,16.75)"><tspan class="quote">“</tspan><tspan>2</tspan><tspan class="quote">”</tspan></text></g></g><g class="match-fragment charset" transform="matrix(1,0,0,1,10,21.1094) matrix(1,0,0,1,20,0) matrix(1,0,0,1,15,99) matrix(1,0,0,1,34.6719,0)"><rect width="73.344" height="33.5" class="charset-box" rx="3" ry="3" transform="matrix(1,0,0,1,0,11)"/><text x="0" y="0" class="charset-label" transform="matrix(1,0,0,1,0,11)"><tspan>One of:</tspan></text><g><g class="charset-range"><text x="0" y="0" transform="matrix(1,0,0,1,5,16) matrix(1,0,0,1,0,0) matrix(1,0,0,1,29.6719,16)">-</text><g class="literal"><g class="label" transform="matrix(1,0,0,1,5,16) matrix(1,0,0,1,0,0) matrix(1,0,0,1,0,0)"><rect width="24.672" height="23.5" rx="3" ry="3"/><text x="0" y="0" transform="matrix(1,0,0,1,5,16.75)"><tspan class="quote">“</tspan><tspan>0</tspan><tspan class="quote">”</tspan></text></g></g><g class="literal"><g class="label" transform="matrix(1,0,0,1,5,16) matrix(1,0,0,1,0,0) matrix(1,0,0,1,38.6719,0)"><rect width="24.672" height="23.5" rx="3" ry="3"/><text x="0" y="0" transform="matrix(1,0,0,1,5,16.75)"><tspan class="quote">“</tspan><tspan>3</tspan><tspan class="quote">”</tspan></text></g></g></g></g></g></g></g></g></g><g class="match-fragment literal"><g class="label" transform="matrix(1,0,0,1,10,0) matrix(1,0,0,1,288.7188,81.1094)"><rect width="21.328" height="23.5" rx="3" ry="3"/><text x="0" y="0" transform="matrix(1,0,0,1,5,16.75)"><tspan class="quote">“</tspan><tspan>:</tspan><tspan class="quote">”</tspan></text></g></g><g class="match-fragment subexp" transform="matrix(1,0,0,1,10,0) matrix(1,0,0,1,320.0469,24.75)"><rect width="216.688" height="114" class="subexp-box" rx="3" ry="3" transform="matrix(1,0,0,1,0,11.1094)"/><text x="0" y="0" class="subexp-label" transform="matrix(1,0,0,1,0,11.1094)"><tspan>group #2</tspan></text><g class="regexp"><path d="M10,37.75q0,-10 10,-10M186.68759155273438,37.75q0,-10 -10,-10M10,67.25q0,10 10,10M186.68759155273438,67.25q0,10 -10,10M0,47q10,0 10,-10V37.75M196.68759155273438,47q-10,0 -10,-10V37.75M0,47q10,0 10,10V67.25M196.68759155273438,47q-10,0 -10,10V67.25" transform="matrix(1,0,0,1,10,21.1094)"/><g class="regexp-matches"><path d="M0,27.75h24.336M147.35168051757813,27.75H156.68759155273438M0,77.25h0M156.6875805175781,77.25H156.68759155273438" transform="matrix(1,0,0,1,10,21.1094) matrix(1,0,0,1,20,0)"/><g class="match"><path d="M39.671875,27.75H64.6719" transform="matrix(1,0,0,1,10,21.1094) matrix(1,0,0,1,20,0) matrix(1,0,0,1,9.336,0)"/><g class="match-fragment"><path d="M0,21.75q10,0 10,-10v-1.75q0,-10 10,-10h14.671875q10,0 10,10v1.75q0,10 10,10" transform="matrix(1,0,0,1,10,21.1094) matrix(1,0,0,1,20,0) matrix(1,0,0,1,9.336,0) matrix(1,0,0,1,0,6)"/><g class="literal"><g class="label" transform="matrix(1,0,0,1,10,21.1094) matrix(1,0,0,1,20,0) matrix(1,0,0,1,9.336,0) matrix(1,0,0,1,0,6) matrix(1,0,0,1,15,10)"><rect width="24.672" height="23.5" rx="3" ry="3"/><text x="0" y="0" transform="matrix(1,0,0,1,5,16.75)"><tspan class="quote">“</tspan><tspan>0</tspan><tspan class="quote">”</tspan></text></g></g></g><g class="match-fragment charset" transform="matrix(1,0,0,1,10,21.1094) matrix(1,0,0,1,20,0) matrix(1,0,0,1,9.336,0) matrix(1,0,0,1,64.6719,0)"><rect width="73.344" height="33.5" class="charset-box" rx="3" ry="3" transform="matrix(1,0,0,1,0,11)"/><text x="0" y="0" class="charset-label" transform="matrix(1,0,0,1,0,11)"><tspan>One of:</tspan></text><g><g class="charset-range"><text x="0" y="0" transform="matrix(1,0,0,1,5,16) matrix(1,0,0,1,0,0) matrix(1,0,0,1,29.6719,16)">-</text><g class="literal"><g class="label" transform="matrix(1,0,0,1,5,16) matrix(1,0,0,1,0,0) matrix(1,0,0,1,0,0)"><rect width="24.672" height="23.5" rx="3" ry="3"/><text x="0" y="0" transform="matrix(1,0,0,1,5,16.75)"><tspan class="quote">“</tspan><tspan>0</tspan><tspan class="quote">”</tspan></text></g></g><g class="literal"><g class="label" transform="matrix(1,0,0,1,5,16) matrix(1,0,0,1,0,0) matrix(1,0,0,1,38.6719,0)"><rect width="24.672" height="23.5" rx="3" ry="3"/><text x="0" y="0" transform="matrix(1,0,0,1,5,16.75)"><tspan class="quote">“</tspan><tspan>9</tspan><tspan class="quote">”</tspan></text></g></g></g></g></g></g><g class="match"><path d="M73.34378051757812,27.75H83.3438" transform="matrix(1,0,0,1,10,21.1094) matrix(1,0,0,1,20,0) matrix(1,0,0,1,0,49.5)"/><g class="match-fragment charset" transform="matrix(1,0,0,1,10,21.1094) matrix(1,0,0,1,20,0) matrix(1,0,0,1,0,49.5) matrix(1,0,0,1,0,0)"><rect width="73.344" height="33.5" class="charset-box" rx="3" ry="3" transform="matrix(1,0,0,1,0,11)"/><text x="0" y="0" class="charset-label" transform="matrix(1,0,0,1,0,11)"><tspan>One of:</tspan></text><g><g class="charset-range"><text x="0" y="0" transform="matrix(1,0,0,1,5,16) matrix(1,0,0,1,0,0) matrix(1,0,0,1,29.6719,16)">-</text><g class="literal"><g class="label" transform="matrix(1,0,0,1,5,16) matrix(1,0,0,1,0,0) matrix(1,0,0,1,0,0)"><rect width="24.672" height="23.5" rx="3" ry="3"/><text x="0" y="0" transform="matrix(1,0,0,1,5,16.75)"><tspan class="quote">“</tspan><tspan>1</tspan><tspan class="quote">”</tspan></text></g></g><g class="literal"><g class="label" transform="matrix(1,0,0,1,5,16) matrix(1,0,0,1,0,0) matrix(1,0,0,1,38.6719,0)"><rect width="24.672" height="23.5" rx="3" ry="3"/><text x="0" y="0" transform="matrix(1,0,0,1,5,16.75)"><tspan class="quote">“</tspan><tspan>5</tspan><tspan class="quote">”</tspan></text></g></g></g></g></g><g class="match-fragment charset" transform="matrix(1,0,0,1,10,21.1094) matrix(1,0,0,1,20,0) matrix(1,0,0,1,0,49.5) matrix(1,0,0,1,83.3438,0)"><rect width="73.344" height="33.5" class="charset-box" rx="3" ry="3" transform="matrix(1,0,0,1,0,11)"/><text x="0" y="0" class="charset-label" transform="matrix(1,0,0,1,0,11)"><tspan>One of:</tspan></text><g><g class="charset-range"><text x="0" y="0" transform="matrix(1,0,0,1,5,16) matrix(1,0,0,1,0,0) matrix(1,0,0,1,29.6719,16)">-</text><g class="literal"><g class="label" transform="matrix(1,0,0,1,5,16) matrix(1,0,0,1,0,0) matrix(1,0,0,1,0,0)"><rect width="24.672" height="23.5" rx="3" ry="3"/><text x="0" y="0" transform="matrix(1,0,0,1,5,16.75)"><tspan class="quote">“</tspan><tspan>0</tspan><tspan class="quote">”</tspan></text></g></g><g class="literal"><g class="label" transform="matrix(1,0,0,1,5,16) matrix(1,0,0,1,0,0) matrix(1,0,0,1,38.6719,0)"><rect width="24.672" height="23.5" rx="3" ry="3"/><text x="0" y="0" transform="matrix(1,0,0,1,5,16.75)"><tspan class="quote">“</tspan><tspan>9</tspan><tspan class="quote">”</tspan></text></g></g></g></g></g></g></g></g></g><g class="match-fragment"><g class="label anchor" transform="matrix(1,0,0,1,10,0) matrix(1,0,0,1,546.7345,81.1094)"><rect width="66.719" height="23.5"/><text x="0" y="0" transform="matrix(1,0,0,1,5,16.75)"><tspan>End of line</tspan></text></g></g></g><path d="M10,92.8594H0M623.45325,92.8594H633.4532470703125"/><circle cx="0" cy="92.859" r="5"/><circle cx="633.453" cy="92.859" r="5"/></g></svg>