<svg xmlns="http://www.w3.org/2000/svg" width="333.141" height="76.5" version="1.1"><defs><style type="text/css">svg{background-color:#fff}.root text,.root tspan{font:12px Arial}.root circle,.root path{stroke-width:2px;stroke:#000}.root path{fill-opacity:0}.root circle{fill:#6b6659}.literal text{fill:#000}.literal rect{fill:#dae9e5}.match-fragment .repeat-label tspan{font-size:10px}.repeat-label{cursor:help}.quote{fill:#908c83}</style></defs><metadata/><desc>Created with Snap</desc><g class="root" transform="matrix(1,0,0,1,15,10)"><g class="regexp match"><path d="M34.671875,21.75H64.6719M89.343775,21.75H127.4688M152.140675,21.75H187.1406M211.812475,21.75H246.8125" transform="matrix(1,0,0,1,10,0)"/><g class="match-fragment"><path d="M10,11.75q-10,0 -10,10v1.75q0,10 10,10h24.671875q10,0 10,-10v-1.75q0,-10 -10,-10" transform="matrix(1,0,0,1,10,0) matrix(1,0,0,1,0,10)"/><g class="literal"><g class="label" transform="matrix(1,0,0,1,10,0) matrix(1,0,0,1,0,10) matrix(1,0,0,1,10,0)"><rect width="24.672" height="23.5" rx="3" ry="3"/><text x="0" y="0" transform="matrix(1,0,0,1,5,16.75)"><tspan class="quote">“</tspan><tspan>a</tspan><tspan class="quote">”</tspan></text></g></g></g><g class="match-fragment"><path d="M10,11.75q-10,0 -10,10v1.75q0,10 10,10h24.671875q10,0 10,-10v-1.75q0,-10 -10,-10" transform="matrix(1,0,0,1,10,0) matrix(1,0,0,1,54.6719,10)"/><g class="literal"><g class="label" transform="matrix(1,0,0,1,10,0) matrix(1,0,0,1,54.6719,10) matrix(1,0,0,1,10,0)"><rect width="24.672" height="23.5" rx="3" ry="3"/><text x="0" y="0" transform="matrix(1,0,0,1,5,16.75)"><tspan class="quote">“</tspan><tspan>b</tspan><tspan class="quote">”</tspan></text></g></g><text x="0" y="0" class="repeat-label" transform="matrix(1,0,0,1,10,0) matrix(1,0,0,1,54.6719,10) matrix(1,0,0,1,0,44.5)"><tspan>1…3 times</tspan><title><text x="0" y="0">repeats 2…4 times in total</text></title></text></g><g class="match-fragment"><path d="M0,21.75q10,0 10,-10v-1.75q0,-10 10,-10h14.671875q10,0 10,10v1.75q0,10 10,10M10,6.75l5,5m-5,-5l-5,5" transform="matrix(1,0,0,1,10,0) matrix(1,0,0,1,112.4688,0)"/><g class="literal"><g class="label" transform="matrix(1,0,0,1,10,0) matrix(1,0,0,1,112.4688,0) matrix(1,0,0,1,15,10)"><rect width="24.672" height="23.5" rx="3" ry="3"/><text x="0" y="0" transform="matrix(1,0,0,1,5,16.75)"><tspan class="quote">“</tspan><tspan>d</tspan><tspan class="quote">”</tspan></text></g></g></g><g class="match-fragment"><path d="M10,11.75q-10,0 -10,10v1.75q0,10 10,10h24.671875q10,0 10,-10v-1.75q0,-10 -10,-10" transform="matrix(1,0,0,1,10,0) matrix(1,0,0,1,177.1406,10)"/><g class="literal"><g class="label" transform="matrix(1,0,0,1,10,0) matrix(1,0,0,1,177.1406,10) matrix(1,0,0,1,10,0)"><rect width="24.672" height="23.5" rx="3" ry="3"/><text x="0" y="0" transform="matrix(1,0,0,1,5,16.75)"><tspan class="quote">“</tspan><tspan>e</tspan><tspan class="quote">”</tspan></text></g></g></g><g class="match-fragment"><path d="M0,21.75q10,0 10,-10v-1.75q0,-10 10,-10h11.328125q10,0 10,10v1.75q0,10 10,10M10,6.75l5,5m-5,-5l-5,5M15,21.75q-10,0 -10,10v1.75q0,10 10,10h21.328125q10,0 10,-10v-1.75q0,-10 -10,-10" transform="matrix(1,0,0,1,10,0) matrix(1,0,0,1,231.8125,0)"/><g class="literal"><g class="label" transform="matrix(1,0,0,1,10,0) matrix(1,0,0,1,231.8125,0) matrix(1,0,0,1,15,10)"><rect width="21.328" height="23.5" rx="3" ry="3"/><text x="0" y="0" transform="matrix(1,0,0,1,5,16.75)"><tspan class="quote">“</tspan><tspan>f</tspan><tspan class="quote">”</tspan></text></g></g></g></g><path d="M20,21.75H0M278.140625,21.75H303.140625"/><circle cx="0" cy="21.75" r="5"/><circle cx="303.141" cy="21.75" r="5"/></g></svg>