<svg xmlns="http://www.w3.org/2000/svg" width="365.047" height="97.531" version="1.1"><defs><style type="text/css">svg{background-color:#fff}.root text,.root tspan{font:12px Arial}.root circle,.root path{stroke-width:2px;stroke:#000}.root path{fill-opacity:0}.subexp .subexp-box{fill-opacity:0;stroke-width:2px;stroke:#908c83;stroke-dasharray:6,2}.root circle{fill:#6b6659}.escape text,.literal text{fill:#000}.escape rect{fill:#bada55}.literal rect{fill:#dae9e5}.match-fragment .repeat-label tspan,.subexp .subexp-label tspan{font-size:10px}.repeat-label{cursor:help}.subexp .subexp-label tspan{dominant-baseline:text-after-edge}.quote{fill:#908c83}</style></defs><metadata/><desc>Created with Snap</desc><g class="root" transform="matrix(1,0,0,1,15,9.8906)"><g class="regexp match"><path d="M52.015625,32.875025H87.0157M109.0157,32.875H139.01569999999998M171.03132499999998,32.875025H206.0313M228.0313,32.875H258.0313" transform="matrix(1,0,0,1,10,0)"/><g class="match-fragment subexp" transform="matrix(1,0,0,1,10,0) matrix(1,0,0,1,0,0)"><rect width="77.016" height="66.531" class="subexp-box" rx="3" ry="3" transform="matrix(1,0,0,1,0,11.1094)"/><text x="0" y="0" class="subexp-label" transform="matrix(1,0,0,1,0,11.1094)"><tspan>group #1</tspan></text><g class="regexp match match-fragment"><path d="M10,11.765625q-10,0 -10,10v1.765625q0,10 10,10h32.015625q10,0 10,-10v-1.765625q0,-10 -10,-10M52.015625,26.765625l5,-5m-5,5l-5,-5" transform="matrix(1,0,0,1,10,21.1094)"/><g class="escape"><g class="label" transform="matrix(1,0,0,1,10,21.1094) matrix(1,0,0,1,10,0)"><rect width="32.016" height="23.531" rx="3" ry="3"/><text x="0" y="0" transform="matrix(1,0,0,1,5,16.7656)"><tspan>digit</tspan></text></g></g><text x="0" y="0" class="repeat-label" transform="matrix(1,0,0,1,10,21.1094) matrix(1,0,0,1,24.7813,44.5313)"><tspan>3 times</tspan><title><text x="0" y="0">repeats 4 times in total</text></title></text></g></g><g class="match-fragment literal"><g class="label" transform="matrix(1,0,0,1,10,0) matrix(1,0,0,1,87.0157,21.125)"><rect width="22" height="23.5" rx="3" ry="3"/><text x="0" y="0" transform="matrix(1,0,0,1,5,16.75)"><tspan class="quote">“</tspan><tspan>-</tspan><tspan class="quote">”</tspan></text></g></g><g class="match-fragment subexp" transform="matrix(1,0,0,1,10,0) matrix(1,0,0,1,119.0157,0)"><rect width="77.016" height="66.531" class="subexp-box" rx="3" ry="3" transform="matrix(1,0,0,1,0,11.1094)"/><text x="0" y="0" class="subexp-label" transform="matrix(1,0,0,1,0,11.1094)"><tspan>group #2</tspan></text><g class="regexp match match-fragment"><path d="M10,11.765625q-10,0 -10,10v1.765625q0,10 10,10h32.015625q10,0 10,-10v-1.765625q0,-10 -10,-10M52.015625,26.765625l5,-5m-5,5l-5,-5" transform="matrix(1,0,0,1,10,21.1094)"/><g class="escape"><g class="label" transform="matrix(1,0,0,1,10,21.1094) matrix(1,0,0,1,10,0)"><rect width="32.016" height="23.531" rx="3" ry="3"/><text x="0" y="0" transform="matrix(1,0,0,1,5,16.7656)"><tspan>digit</tspan></text></g></g><text x="0" y="0" class="repeat-label" transform="matrix(1,0,0,1,10,21.1094) matrix(1,0,0,1,35.3281,44.5313)"><tspan>once</tspan><title><text x="0" y="0">repeats 2 times in total</text></title></text></g></g><g class="match-fragment literal"><g class="label" transform="matrix(1,0,0,1,10,0) matrix(1,0,0,1,206.0313,21.125)"><rect width="22" height="23.5" rx="3" ry="3"/><text x="0" y="0" transform="matrix(1,0,0,1,5,16.75)"><tspan class="quote">“</tspan><tspan>-</tspan><tspan class="quote">”</tspan></text></g></g><g class="match-fragment subexp" transform="matrix(1,0,0,1,10,0) matrix(1,0,0,1,238.0313,0)"><rect width="77.016" height="66.531" class="subexp-box" rx="3" ry="3" transform="matrix(1,0,0,1,0,11.1094)"/><text x="0" y="0" class="subexp-label" transform="matrix(1,0,0,1,0,11.1094)"><tspan>group #3</tspan></text><g class="regexp match match-fragment"><path d="M10,11.765625q-10,0 -10,10v1.765625q0,10 10,10h32.015625q10,0 10,-10v-1.765625q0,-10 -10,-10M52.015625,26.765625l5,-5m-5,5l-5,-5" transform="matrix(1,0,0,1,10,21.1094)"/><g class="escape"><g class="label" transform="matrix(1,0,0,1,10,21.1094) matrix(1,0,0,1,10,0)"><rect width="32.016" height="23.531" rx="3" ry="3"/><text x="0" y="0" transform="matrix(1,0,0,1,5,16.7656)"><tspan>digit</tspan></text></g></g><text x="0" y="0" class="repeat-label" transform="matrix(1,0,0,1,10,21.1094) matrix(1,0,0,1,35.3281,44.5313)"><tspan>once</tspan><title><text x="0" y="0">repeats 2 times in total</text></title></text></g></g></g><path d="M30,32.875025H0M300.046925,32.875025H335.04693603515625"/><circle cx="0" cy="32.875" r="5"/><circle cx="335.047" cy="32.875" r="5"/></g></svg>